<?xml version="1.0" encoding="UTF-8"?><svg id="b" xmlns="http://www.w3.org/2000/svg" width="455.4" height="353.739" viewBox="0 0 455.4 353.739"><defs><style>.e{fill:#bdbdbd;}.f{fill:#3d8dcc;}.g{fill:#fff;}.h{fill:none;}.i{fill:#7abee6;}.j{fill:#bdbdbd;}.k{fill:#211715;}.l{fill:#b3b3b3;}.m{fill:#645d5c;}</style></defs><g id="c"><g id="d"><path class="g" d="M121.756,159.963l-3.894-.554c-1.228-.87-17.425-13.641-18.219-14.284v-1.519c-3.851-2.123-7.366-5.237-10.731-9.265-4.899-5.864-7.689-12.18-9.23-17.414-2.102.541-4.374-.239-5.882-1.473-3.401-2.783-4.812-6.664-5.673-9.201-1.216-3.582-1.293-9.372.519-12.514.607-1.053,2.017-2.845,5.332-2.962,1.523-.054,3.303.423,4.624,1.693,0,0-7.29-33.274,40.71-33.274,43.711,0,41.122,33.274,41.122,33.274,1.321-1.27,3.101-1.746,4.624-1.693,3.315.117,4.725,1.91,5.332,2.962,1.812,3.142,1.735,8.932.519,12.514-.861,2.537-2.272,6.418-5.673,9.201-1.401,1.147-3.464,1.902-5.436,1.569,0,0-.189-.032-.521-.088-.626,2.067-1.398,4.093-1.87,5.077-1.372,3.723-8.907,16.712-18.469,21.922-.004.712-.004,1.19-.004,1.19-.795.643-16.991,13.414-18.219,14.284"/><path class="g" d="M358.568,112.29c-1.583,6.76-3.682,12.935-5.74,18.864-6.201,3.308-12.995,5.401-20.025,6.279-.261.047-.522.093-.784.136-9.189,1.536-18.613.945-27.384-2.02-.776-4.498-1.423-9.091-1.874-13.687l9.813-15.859,35.833-1.481,10.161,7.767Z"/><path class="e" d="M426.629,184.569c4.316,18.869,6.92,34.678-.563,49.783-1.716,3.463-5.06,8.814-7.882,11.52-3.014,2.891-6.656,4.866-10.747,6.126.758,2.928,1.607,5.865,2.479,8.766h-118.223l-36.944-62.054c-.667-3.667-.269-8.252.403-11.895,2.081-11.272,4.586-22.735,6.421-28.056,2.178-6.315,4.673-16.578,11.039-23.924,4.166-4.807,12.62-8.848,20.274-11.468l8.346-2.46,1.401-.413c1.661,18.551,6.61,37.206,10.544,49.873,1.477,4.757,2.812,8.67,3.776,11.415,1.921,5.472,4.207,10.784,8.294,19.444,1.677-3.415,6.921-15.586,12.457-29.291,4.64-11.488,9.486-24.052,12.607-33.441,2.897-8.715,6.421-17.66,8.661-27.999,1.844.897,3.695,1.797,3.695,1.797l9.974,4.849c15.892,4.747,29.082,10.74,38.118,24.084,8.2,12.109,13.549,34.562,15.869,43.345"/><path class="g" d="M377.265,201.732c-6.217,3.202-16.142,8.225-21.992,11.518l-9.487,4.106c-2.436,1.383-6.763,3.787-8.947,4.93l-1.053.582c0,1.016,0,1.733,0,1.733,0,6.172,0,23.273,0,29.445l.382,4.003c0,8.204,0,22.724,0,30.928l1.053,2.574c0,8.574,0,26.426,0,34.162.906-.005,2.076-.005,3.247-.005,13.436-7.382,25.67-13.831,38.052-21.009-.225-7.675-.461-19.826-.461-26.718l.432-8.226c-.289-10.066-.289-21.252,1.304-30.245l-1.874-4.396c-.335-11.396-.118-23.416.57-32.467"/><path class="i" d="M332.019,137.569c-9.189,1.536-18.614.945-27.385-2.025,2.28,13.212,5.681,25.602,8.544,34.821,1.477,4.757,2.812,8.67,3.776,11.415,1.921,5.472,4.207,10.784,8.294,19.444,1.677-3.415,6.921-15.586,12.457-29.291,4.64-11.488,9.486-24.052,12.607-33.441.805-2.422,1.658-4.861,2.52-7.341-6.202,3.31-12.998,5.403-20.029,6.281-.261.047-.522.093-.784.136Z"/><path class="m" d="M351.806,112.379c12.29.463,21.132-4.451,26.17-12.894,3.721-6.237,4.521-13.14,3.473-18.728-1.607-8.527-3.91-15.45-6.129-25.571-1.866-8.526-2.841-19.46-6.496-26.829-2.442-4.915-7.21-12.209-14.353-16.479l-8.204-4.481-1.198-.669c-6.613-2.646-13.488-4.377-23.261-4.333-16.007.089-29.206,7.484-35.507,13.563-7.028,7.572-9.906,15.115-13.155,29.319-2.106,9.297-4.202,20.589-5.853,29.965-1.409,8.082-1.52,16.188,2.532,23.317,3.188,5.569,8.23,9.152,15.255,11.283l66.727,2.538Z"/><path class="g" d="M332.991,116.787c7.706-3.985,12.788-9.171,12.788-9.171,2.472-2.556,4.483-5.181,6.354-7.956,0,0,1.828-2.826,2.6-4.44,0,0,.203-.424.521-1.084,2.795.296,5.836-.732,7.032-1.454,3.798-2.305,5.581-5.588,6.75-7.957,1.66-3.35,2.399-8.983.908-12.267-.5-1.098-1.742-3.016-5.122-3.527-1.553-.235-3.434.016-4.93,1.089l-7.178,1.292c-3.583-1.558-5.331-4.009-7.304-7.856-2.999-5.849-4.068-13.363-8.157-18.032-2.399-2.739-5.695-4.159-8.879-3.826,0,0-4.517-.03-6.412-.045-3.683-2.598-9.749-1.039-14.078.76-1.848.768-3.466,1.932-4.928,3.212-4.991,4.371-8.256,10.082-12.7,14.911-4.194,4.556-8.991,6.454-15.617,5.949.363,2.721.685,5.45.982,8.152.473,4.286.875,8.491,1.318,12.475.865,7.878,2.867,15.212,6.841,20.987,1.449,2.113,3.159,4.014,5.171,5.654,7.908,6.459,16.298,9.105,26.41,8.21,1.62-.151,3.179-.362,4.708-.654,3.944-.765,9.206-2.696,12.928-4.427l-.005.003Z"/><path class="k" d="M318.133,78.033c-.595-2.195.011-7.177,4.14-7.462,5.438.218,5.522,6.269,3.595,9.047-1.578,2.275-6.019,3.092-7.735-1.585Z"/><path class="k" d="M285.808,77.949c-.544-2.202.012-7.2,3.793-7.487,4.98.217,5.055,6.287,3.289,9.075-1.446,2.282-5.512,3.103-7.083-1.588Z"/><path class="k" d="M302.384,82.885c-.704,1.185-1.378,2.392-1.976,3.635-.343.713-.601,1.337-.646,2.134-.052.925.365,1.85,1.051,2.46.566.504,1.198.913,1.941,1.104.464.119.947.131,1.421.189l-.638-.086.053.008c.665.097,1.245.112,1.849-.242.498-.291.973-.862,1.103-1.434.14-.614.11-1.304-.242-1.849-.314-.488-.833-1.015-1.434-1.103-.405-.059-.81-.095-1.214-.147l.638.086c-.186-.028-.362-.074-.536-.144l.573.242c-.16-.072-.305-.16-.447-.263l.486.375c-.133-.106-.261-.217-.372-.346l.375.486c-.031-.041-.057-.085-.078-.132l.242.573c-.028-.075-.044-.14-.056-.219l.086.638c-.005-.081-.003-.156.004-.237l-.086.638c.031-.201.091-.387.169-.574l-.242.573c.6-1.361,1.364-2.665,2.122-3.942.642-1.08.279-2.681-.861-3.284-1.157-.611-2.599-.292-3.284.861h0Z"/><path class="k" d="M361.103,72.093c1.393-.928,3.03-1.078,4.6-.485,1.142.432,1.64.982,2.028,1.771,1.282,2.61.591,6.374-.318,9.028-.952,2.78-2.805,5.592-5.137,7.394-1.998,1.545-5.547,2.811-8.172,1.609-1.178-.539-2.584-.335-3.284.861-.604,1.033-.323,2.742.861,3.284,3.481,1.594,7.484,1.172,10.923-.357,3.183-1.415,5.729-4.317,7.453-7.277,1.754-3.012,2.794-6.242,3.046-9.726.226-3.136-.265-6.607-2.492-8.984-2.955-3.154-8.385-3.624-11.93-1.262-2.559,1.705-.158,5.864,2.423,4.145h0Z"/><path class="k" d="M334.202,118.86c4.714-2.461,9.272-5.607,13.074-9.348,2.124-2.089,3.988-4.481,5.72-6.898,1.403-1.959,2.748-4.015,3.81-6.182.57-1.163.315-2.596-.861-3.284-1.057-.618-2.711-.308-3.284.861-4.474,9.133-12.029,16.084-20.881,20.706-2.739,1.43-.315,5.574,2.423,4.145h0Z"/><path class="k" d="M331.784,114.712c-10.175,4.689-22.174,7.059-32.809,2.389-5.201-2.283-10.171-5.88-13.347-10.64-3.26-4.885-4.931-10.591-5.869-16.341-1.227-7.528-1.62-15.208-2.595-22.775-.166-1.285-.984-2.4-2.4-2.4-1.168,0-2.567,1.105-2.4,2.4.947,7.345,1.472,14.744,2.475,22.081.877,6.42,2.586,12.884,6.001,18.452,6.628,10.808,19.537,16.92,32.027,16.536,7.492-.23,14.576-2.441,21.341-5.558,1.177-.543,1.47-2.242.861-3.284-.707-1.208-2.102-1.406-3.284-.861h0Z"/><path class="h" d="M293.845,259.29c.757,5.543-.048,12.13.545,18.287"/><path class="h" d="M387.602,253.594c-2.349-.178-4.74-.45-7.156-.796"/><path class="k" d="M424.315,185.207c2.831,12.4,5.814,25.666,3.014,38.349-1.277,5.786-3.778,11.065-7.084,15.96-3.114,4.611-7.118,8.011-12.427,9.835-6.48,2.226-13.449,2.341-20.217,1.843-1.294-.095-2.4,1.171-2.4,2.4,0,1.378,1.102,2.305,2.4,2.4,12.669.931,26.69-.772,34.952-11.515,3.891-5.059,6.974-10.838,8.731-16.986,1.801-6.303,2.198-12.947,1.743-19.464-.567-8.139-2.272-16.162-4.084-24.099-.687-3.01-5.316-1.736-4.629,1.276h0Z"/><path class="k" d="M300.595,118.59c-3.24.955-6.537,1.796-9.715,2.942-6.948,2.505-14.691,5.759-19.748,11.36-4.947,5.48-7.722,12.534-9.99,19.452-1.974,6.02-3.758,12.013-5.141,18.202-1.089,4.872-2.069,9.769-2.984,14.677-.872,4.675-1.383,9.402-.58,14.124.217,1.279,1.793,1.995,2.952,1.676,1.354-.372,1.894-1.67,1.676-2.952-.62-3.643-.175-7.491.492-11.095.776-4.198,1.607-8.387,2.504-12.56,1.334-6.202,2.961-12.237,4.895-18.271,2.023-6.312,4.169-12.663,8.12-18.072,4.102-5.616,10.984-8.817,17.305-11.25,3.749-1.443,7.64-2.468,11.491-3.603,2.956-.871,1.698-5.505-1.276-4.629h0Z"/><path class="k" d="M342.011,204.649c6.038-8.447,11.724-17.147,17.244-25.94,2.749-4.379,5.452-8.787,8.096-13.23,1.304-2.192,2.594-4.392,3.86-6.607,1.079-1.887,2.563-3.919,3.181-6.016.987-3.347-1.26-5.784-3.285-8.118-1.979-2.281-4.026-4.502-6.056-6.737l-.486,3.769c3.725-1.844,7.6-3.509,11.172-5.642.626-.373,1.286-.786,1.66-1.434.609-1.056.206-2.295-.178-3.355-.979-2.707-2.269-5.384-3.904-7.757-.734-1.066-2.106-1.55-3.284-.861-1.056.618-1.6,2.211-.861,3.284,1.048,1.522,1.922,3.158,2.689,4.838.467,1.022.994,2.132,1.155,3.252v-1.276c.657-.911.827-1.217.509-.919.381-.285.468-.355.261-.209-.106.041-.239.153-.336.213-.375.23-.764.44-1.151.649-1.103.597-2.224,1.161-3.346,1.722-2.262,1.132-4.543,2.228-6.81,3.351-1.453.719-1.456,2.701-.486,3.769,1.724,1.898,3.459,3.785,5.155,5.707.817.926,1.669,1.843,2.428,2.818.529.679.721,1.166.38,1.966-.801,1.879-2.04,3.672-3.058,5.441-1.223,2.124-2.465,4.236-3.721,6.34-5.055,8.47-10.301,16.829-15.735,25.062-3.004,4.551-6.07,9.061-9.241,13.497-.754,1.055-.185,2.672.861,3.284,1.206.706,2.528.197,3.284-.861h0Z"/><path class="k" d="M300.361,121.862c1.191,11.948,3.532,23.759,6.563,35.37,2.466,9.447,5.288,18.871,8.744,28.007,2.013,5.322,4.373,10.507,6.784,15.658.549,1.174,2.238,1.473,3.284.861,1.203-.704,1.413-2.105.861-3.284-3.974-8.491-7.378-17.069-10.237-25.997-3.229-10.082-5.998-20.323-8.115-30.697-1.344-6.587-2.417-13.227-3.084-19.918-.129-1.29-1.011-2.4-2.4-2.4-1.198,0-2.529,1.102-2.4,2.4h0Z"/><path class="k" d="M428.943,183.931c-3.614-13.705-7.003-27.929-13.96-40.404-3.933-7.053-9.532-13.012-16.194-17.552-6.779-4.62-14.525-7.682-22.305-10.162-.561-.179-1.123-.355-1.687-.528-.248-.076-.504-.168-.757-.231-.817-.203-.272-.021-.214,0-.237-.087-.466-.226-.692-.336l-3.38-1.643-5.876-2.857c-1.165-.566-2.594-.317-3.284.861-.616,1.054-.31,2.715.861,3.284,3.313,1.611,6.598,3.302,9.948,4.836,1.717.786,3.673,1.189,5.468,1.783,1.988.658,3.961,1.36,5.912,2.121,3.596,1.404,7.103,3.054,10.429,5.017,6.566,3.875,12.261,9.127,16.317,15.612,3.992,6.383,6.629,13.577,8.943,20.706,2.223,6.847,4.006,13.812,5.84,20.768.787,2.984,5.418,1.719,4.629-1.276h0Z"/><path class="k" d="M310.428,139.594c7.623,1.518,15.178,1.405,22.826.178,3.638-.584,7.201-1.206,10.725-2.32,3.471-1.097,6.843-2.525,10.058-4.23,2.73-1.447.308-5.592-2.423-4.145-5.86,3.107-12.242,5.059-18.809,5.952-3.488.475-6.904.952-10.436.961-3.587.009-7.148-.325-10.666-1.025-1.27-.253-2.591.363-2.952,1.676-.325,1.181.399,2.698,1.676,2.952h0Z"/><path class="k" d="M356.254,111.652c-1.514,6.405-3.582,12.646-5.737,18.86-1.898,5.472-3.714,10.972-5.698,16.414-4.485,12.302-9.38,24.46-14.43,36.54-2.044,4.889-4.105,9.775-6.3,14.599-.537,1.179-.337,2.583.861,3.284,1.031.603,2.744.324,3.284-.861,9.858-21.662,18.333-43.963,26.125-66.436,2.416-6.968,4.824-13.938,6.523-21.124.71-3.004-3.917-4.286-4.629-1.276h0Z"/><path class="k" d="M288.068,130.472c-1.724,2.087-3.194,4.353-4.319,6.819-1.02,2.235-1.548,4.717,1.13,5.993,1.003.478,2.036.902,3.051,1.352.169.075,1.052.615,1.246.552-.186.061-.245-.713-.318-.935-.093-.285.353-.323-.037-.092-.351.208-.661.695-.945.993-.915.959-1.833,1.915-2.732,2.89-.924,1.003-2.204,2.093-2.632,3.419-.745,2.31,1.367,4.881,2.433,6.81,2.633,4.765,5.307,9.507,7.997,14.24,2.974,5.232,5.967,10.453,9.006,15.648,1.559,2.665,5.709.252,4.145-2.423-5.182-8.858-10.259-17.778-15.256-26.741-1.083-1.942-2.16-3.887-3.226-5.838-.123-.226-.244-.59-.423-.777l-.083-.152c-.276.92-.259,1.17.05.749.418-.239.897-1.01,1.226-1.369.896-.977,1.814-1.935,2.729-2.894,1.636-1.713,3.365-3.743,2.008-6.217-.672-1.225-1.903-1.624-3.086-2.148l-1.931-.856c-.218-.097-.453-.241-.684-.303-.506-.135-.639-.698-.141.57.571,1.456.128.716.443.344.209-.247.312-.69.453-.98.289-.597.597-1.186.925-1.762.696-1.224,1.468-2.41,2.366-3.497.825-.998.978-2.416,0-3.394-.85-.85-2.564-1.004-3.394,0h0Z"/><path class="k" d="M285.717,107.528c-4.721-1.458-9.216-3.853-12.282-7.834-3.587-4.658-4.767-10.559-4.615-16.326.162-6.132,1.611-12.237,2.735-18.248,1.175-6.285,2.405-12.562,3.812-18.799,2.08-9.216,4.492-18.827,10.563-26.293,5.87-7.218,15.136-11.607,24.091-13.782,6.703-1.628,13.725-1.846,20.557-.953,2.893.378,5.756,1.023,8.546,1.87,1.349.41,2.682.87,4,1.369.218.083.435.169.654.251.888.333-.224-.145.309.144.325.176.645.36.967.54,2.7,1.508,5.123-2.636,2.423-4.145-4.239-2.368-9.34-3.645-14.104-4.432-6.645-1.097-13.438-1.215-20.097-.178-5.935.925-11.705,2.842-17.069,5.536-4.139,2.079-8.33,4.697-11.605,8.009-7.223,7.305-10.576,17.214-12.965,26.962-1.58,6.449-2.874,12.97-4.12,19.49s-2.751,13.167-3.333,19.812c-.636,7.257.429,14.944,4.698,21.028,3.776,5.382,9.356,8.687,15.558,10.602,2.958.913,4.223-3.719,1.276-4.629h0Z"/><path class="k" d="M353.259,13.951c6.179,3.755,11.041,10.005,13.948,16.584,3.338,7.556,3.911,16.17,5.563,24.18,1.765,8.557,4.423,16.903,6.131,25.473,1.533,7.693-.38,15.849-5.667,21.759-5.483,6.128-13.415,8.297-21.427,8.033-3.09-.102-3.086,4.698,0,4.8,8.153.269,16.303-1.783,22.557-7.208,6.539-5.672,10.215-14.553,9.891-23.169-.163-4.329-1.349-8.651-2.395-12.835-1.147-4.59-2.399-9.153-3.483-13.759-2.068-8.785-2.746-18.015-5.762-26.554s-9.13-16.708-16.932-21.45c-2.647-1.609-5.062,2.541-2.423,4.145h0Z"/><path class="k" d="M321.08,38.44c-3.68-1.296-7.869-.525-11.47.674-3.999,1.331-7.276,3.483-10.224,6.489-2.886,2.943-5.254,6.327-7.803,9.552-2.155,2.726-4.408,5.498-7.504,7.187-3.277,1.788-7.014,1.925-10.649,1.529-1.291-.141-2.4,1.204-2.4,2.4,0,1.415,1.106,2.259,2.4,2.4,3.419.373,6.997.247,10.261-.933s6.071-3.206,8.406-5.762c2.684-2.937,4.951-6.215,7.45-9.304,2.452-3.032,5.208-6.194,8.771-7.933,3.321-1.621,7.874-2.943,11.488-1.67,1.223.431,2.626-.489,2.952-1.676.364-1.325-.449-2.52-1.676-2.952h0Z"/><path class="k" d="M328.373,43.999c7.388-.617,10.023,7.664,11.966,13.237,2.151,6.171,4.772,13.275,11.163,16.149,1.181.531,2.581.341,3.284-.861.6-1.027.327-2.749-.861-3.284-6.205-2.79-7.872-10.429-10.005-16.248-1.255-3.423-2.721-6.88-5.251-9.575-2.623-2.793-6.431-4.541-10.295-4.219-1.292.108-2.4,1.026-2.4,2.4,0,1.215,1.101,2.509,2.4,2.4h0Z"/><path class="k" d="M412.231,260.125c-.802-2.669-1.578-5.346-2.29-8.04-.321-1.214-1.728-2.073-2.952-1.676-1.248.404-2.02,1.652-1.676,2.952.712,2.694,1.488,5.371,2.29,8.04.361,1.201,1.699,2.082,2.952,1.676,1.214-.393,2.063-1.665,1.676-2.952h0Z"/><path class="k" d="M303.342,103.206c2.076,1.175,4.538,1.659,6.903,1.727,1.184.034,2.386-.074,3.545-.315,1.111-.231,2.181-.678,3.23-1.101,1.16-.468,2.107-1.62,1.676-2.952-.363-1.121-1.706-2.18-2.952-1.676-.951.384-1.919.787-2.918,1.031-.209.051-.42.094-.631.131-.108.019-.221.027-.328.052.589-.138.213-.033.048-.018-.495.045-.993.061-1.491.053-.48-.008-.956-.046-1.433-.092-.468-.045.32.059.017.004-.117-.021-.234-.037-.351-.058-.231-.041-.46-.087-.689-.139-.466-.106-.928-.236-1.378-.397-.101-.036-.201-.075-.302-.113-.413-.155.321.172.071.027-.192-.111-.4-.198-.593-.307-1.093-.619-2.673-.296-3.284.861-.601,1.137-.306,2.623.861,3.284h0Z"/><path class="k" d="M321.968,98.767c.525.851.984,1.739,1.374,2.659l-.242-.573c.141.335.273.673.396,1.015.074.312.217.584.43.816.169.261.394.467.673.618.514.301,1.273.429,1.849.242.581-.188,1.141-.548,1.434-1.103.289-.546.459-1.246.242-1.849-.531-1.475-1.189-2.912-2.012-4.248-.321-.521-.839-.939-1.434-1.103-.319-.1-.638-.114-.957-.043-.319.014-.617.109-.892.285-.512.33-.964.822-1.103,1.434-.142.622-.101,1.293.242,1.849h0Z"/><path class="g" d="M118.381,241.691c-5.627-13.885-7.075-18.469-11.473-31.976-5.45-16.738-10.547-35.008-14.612-52.398-.441-1.623.324-3.738,1.343-4.918,1.829-2.119,4.134-5.183,6.004-7.275.795.643,16.991,13.414,18.219,14.284h2.853c1.228-.87,17.425-13.641,18.219-14.284,1.87,2.092,4.175,5.156,6.004,7.275,1.019,1.18,1.783,3.295,1.343,4.918-4.065,17.39-9.162,35.661-14.612,52.398-4.398,13.507-5.846,18.091-11.473,31.976h-1.815Z"/><path class="f" d="M113.491,229.176c1.299,3.514,2.809,7.378,4.891,12.516h1.815c5.18-12.782,6.818-17.682,10.478-28.918-1.774-15.214-4.121-33.306-4.121-33.839,0-.958.218-1.906.436-2.842.109-.425.207-.849.294-1.274.468-2.113.554-3.194,1.099-5.433l.034-.109c-2.613-3.523-5.773-7.701-7.699-9.867h-2.853c-1.909,2.148-5.032,6.273-7.633,9.777.148.414.243.684.243.684.726,1.513.925,3.016,1.336,4.344.513,1.637,1.026,3.32,1.055,5.033.015.895-2.455,18.05-4.744,34.189,2.071,6.354,3.503,10.685,5.371,15.74Z"/><path class="l" d="M23.875,260.41c1.8-16.45,3.94-35.06,5.38-46.13,1.99-12.89,4.93-22.78,9.86-30.27,8.894-13.514,26.217-19.218,45.977-26.965,2.223-1.724,4.391-3.237,6.14-4.358,4.222,18.749,9.739,38.798,15.675,57.029,4.625,14.202,5.988,18.539,12.376,34.197,6.397-15.657,7.76-19.993,12.385-34.197,5.936-18.23,11.453-38.28,15.675-57.029,1.749,1.12,3.917,2.634,6.14,4.358,19.761,7.747,37.084,13.451,45.977,26.965,4.93,7.49,7.87,17.38,9.86,30.27,1.44,11.07,3.58,29.68,5.38,46.13H23.875Z"/><path class="k" d="M136.165,243.501c10.738-18.614,21.477-37.29,31.172-56.475.662-1.309,1.142-2.589.73-4.063-.393-1.407-1.519-2.428-2.496-3.449-2.2-2.296-4.505-4.488-6.824-6.663l-.486,3.769c1.864-1.064,3.728-2.128,5.592-3.192,1.685-.962,3.674-1.833,3.534-4.111-.088-1.439-1.165-2.912-1.999-4.045-.882-1.198-1.839-2.336-2.864-3.414-4.101-4.315-8.97-8.027-13.968-11.243-1.265-.814-3.193-.039-3.526,1.434-5.502,24.387-12.42,48.516-20.683,72.113-1.993,5.692-4.202,11.302-6.465,16.891-.487,1.202.53,2.637,1.676,2.952,1.372.377,2.464-.47,2.952-1.676,8.865-21.895,15.861-44.579,21.868-67.413,1.885-7.166,3.649-14.363,5.28-21.591l-3.526,1.434c3.247,2.09,6.353,4.406,9.262,6.944,1.557,1.358,3.063,2.782,4.446,4.318.556.617,1.1,1.248,1.583,1.924.231.323.453.652.662.989.122.197.227.415.357.607.093.137.177.562.161.183l.328-1.211c.192-.37.169-.161-.212.035-.365.188-.718.41-1.075.614-.645.368-1.29.737-1.936,1.105-1.29.737-2.581,1.473-3.871,2.21-1.311.748-1.61,2.715-.486,3.769,1.912,1.794,3.816,3.599,5.658,5.465.391.397.78.795,1.166,1.198.324.338,1.169.952,1.302,1.387.036.12.008-.361-.081-.093-.207.62-.629,1.227-.928,1.809-2.292,4.449-4.631,8.874-7.003,13.281-4.861,9.031-9.858,17.989-14.922,26.907-2.823,4.971-5.667,9.929-8.524,14.88-1.546,2.681,2.6,5.101,4.145,2.423h0Z"/><path class="k" d="M106.558,241.078c-10.14-17.577-20.164-35.235-29.509-53.251-.314-.605-.627-1.211-.939-1.817-.262-.508-.834-1.248-.928-1.809-.022-.13-.411.469.241-.255.425-.471.87-.926,1.31-1.382,2.099-2.172,4.29-4.253,6.493-6.319,1.124-1.055.825-3.021-.486-3.769-1.29-.737-2.581-1.473-3.871-2.21-.573-.327-1.147-.655-1.72-.982-.358-.205-.717-.409-1.075-.614-.143-.082-.287-.164-.43-.246-.291-.189-.29-.16.003.088l.328,1.211c-.012.281-.031.095.094-.063.139-.177.232-.412.349-.605.204-.337.423-.664.649-.987.474-.675,1.007-1.304,1.556-1.92,1.413-1.586,2.962-3.05,4.561-4.446,2.91-2.539,6.016-4.855,9.262-6.944l-3.526-1.434c5.502,24.387,12.42,48.516,20.683,72.113,1.993,5.692,4.202,11.302,6.465,16.891.486,1.201,1.599,2.048,2.952,1.676,1.139-.313,2.166-1.744,1.676-2.952-8.865-21.895-15.861-44.579-21.868-67.413-1.885-7.166-3.649-14.363-5.28-21.591-.333-1.474-2.261-2.248-3.526-1.434-4.997,3.216-9.867,6.928-13.968,11.243-1.793,1.886-4.34,4.476-4.821,7.14-.437,2.425,1.741,3.431,3.491,4.43,1.864,1.064,3.728,2.128,5.592,3.192l-.486-3.769c-2.029,1.903-4.047,3.818-5.993,5.806-1.762,1.8-4.087,3.771-3.355,6.585.309,1.188,1.026,2.307,1.585,3.393.627,1.217,1.258,2.431,1.892,3.645,1.215,2.326,2.443,4.646,3.68,6.96,5.127,9.594,10.418,19.1,15.784,28.562,2.975,5.245,5.975,10.476,8.989,15.699,1.543,2.675,5.693.261,4.145-2.423h0Z"/><path class="k" d="M97.946,143.428c-1.135,1.281-2.205,2.617-3.277,3.95-1.118,1.391-2.379,2.724-3.396,4.19-1.593,2.295-2.042,5.41-.609,7.864,2.372,4.062,5.153,7.955,8.135,11.587,1.781,2.17,3.713,4.303,6.076,5.855,1.172.769,2.54.132,3.284-.861,3.742-4.997,7.263-10.22,11.401-14.906,1.093-1.237.818-2.835-.486-3.769-.141-.101-.278-.206-.416-.311-.167-.126-.982-.756-.369-.281-.718-.555-1.433-1.113-2.149-1.671-1.989-1.553-3.973-3.111-5.957-4.671-2.951-2.32-5.921-4.619-8.843-6.975-1.008-.813-2.409-.985-3.394,0-.841.841-1.014,2.576,0,3.394,2.991,2.412,6.031,4.764,9.051,7.139,3.199,2.515,6.345,5.15,9.654,7.521l-.486-3.769c-4.407,4.991-8.165,10.554-12.151,15.877l3.284-.861c-.893-.586-1.753-1.392-2.723-2.402-1.049-1.092-2.028-2.25-2.972-3.433-1.775-2.226-3.405-4.576-4.962-6.959-.553-.847-1.098-1.701-1.619-2.569-.157-.262-.351-.529-.471-.81-.111-.258.037-.013.048.078-.034-.264-.034-.532.007-.801.255-1.637,1.692-2.869,2.684-4.099,1.333-1.651,2.642-3.323,4.05-4.912,2.042-2.305-1.341-5.712-3.394-3.394Z"/><path class="k" d="M137.238,146.822c1.407,1.589,2.717,3.261,4.05,4.912.99,1.226,2.429,2.464,2.684,4.099.041.261.046.525.017.785.001-.013.159-.343.039-.062s-.314.548-.471.81c-.521.868-1.066,1.721-1.619,2.569-1.557,2.383-3.186,4.733-4.962,6.959-.944,1.183-1.923,2.341-2.972,3.433-.97,1.01-1.83,1.815-2.723,2.402l3.284.861c-3.986-5.324-7.744-10.886-12.151-15.877l-.486,3.769c3.309-2.371,6.455-5.006,9.654-7.521,3.02-2.374,6.06-4.727,9.051-7.139,1.01-.814.848-2.546,0-3.394-.998-.998-2.382-.816-3.394,0-2.922,2.356-5.892,4.655-8.843,6.975-1.984,1.559-3.968,3.118-5.957,4.671-.715.558-1.431,1.116-2.149,1.671.613-.474-.202.155-.369.281-.138.104-.276.21-.416.311-1.304.934-1.578,2.532-.486,3.769,4.137,4.686,7.659,9.908,11.401,14.906.745.995,2.1,1.638,3.284.861,4.372-2.87,7.608-7.574,10.547-11.8,1.186-1.705,2.339-3.439,3.411-5.219,1.395-2.316,1.399-4.775.242-7.243-.777-1.657-2.21-3.016-3.349-4.431-1.289-1.599-2.559-3.215-3.922-4.753-2.052-2.317-5.437,1.088-3.394,3.394Z"/><path class="k" d="M217.102,260.41c-1.062-9.705-2.154-19.406-3.295-29.102-.998-8.49-1.815-17.05-3.566-25.425-1.658-7.928-4.094-15.96-8.529-22.813-4.246-6.561-10.422-11.47-17.169-15.278-8.699-4.91-18.196-8.315-27.482-11.917-1.209-.469-2.634.517-2.952,1.676-.373,1.357.463,2.482,1.676,2.952,8.003,3.104,16.109,6.071,23.742,10.03,6.312,3.275,12.526,7.364,16.802,13.163,4.548,6.169,7.02,13.587,8.738,20.98,1.848,7.954,2.69,16.07,3.651,24.167,1.248,10.516,2.433,21.039,3.586,31.566.141,1.288,1.002,2.4,2.4,2.4,1.188,0,2.542-1.103,2.4-2.4h0Z"/><path class="k" d="M125.93,174.89c-4.221-.002-8.442-.088-12.664-.09-1.255,0-2.458,1.104-2.4,2.4s1.055,2.399,2.4,2.4c4.221.002,8.442.088,12.664.09,1.255,0,2.458-1.104,2.4-2.4s-1.055-2.4-2.4-2.4h0Z"/><path class="k" d="M126.067,168.748c-.393,1.654-.655,3.332-1.004,4.995-.357,1.703-.974,3.48-.908,5.239.043,1.146.266,2.308.407,3.444.737,5.974,1.491,11.945,2.222,17.92.509,4.159,1.01,8.319,1.496,12.48.15,1.287.995,2.4,2.4,2.4,1.181,0,2.551-1.104,2.4-2.4-.825-7.067-1.694-14.13-2.572-21.191-.51-4.103-1.199-8.227-1.523-12.35-.092-1.164.267-2.276.521-3.403.439-1.945.728-3.918,1.189-5.858.714-3.003-3.914-4.285-4.629-1.276h0Z"/><path class="k" d="M110.546,213.281c1.258-8.865,2.537-17.727,3.762-26.597.318-2.305.719-4.62.914-6.94.123-1.46-.19-2.96-.564-4.365-.6-2.254-1.155-4.59-2.114-6.721-.532-1.182-2.25-1.466-3.284-.861-1.216.711-1.395,2.097-.861,3.284.432.96.618,2.018.886,3.03.267,1.006.615,1.988.861,3,.233.958.359,1.872.252,2.844-.265,2.394-.506,3.913-.851,6.404-1.187,8.552-2.417,17.098-3.631,25.646-.182,1.282.314,2.578,1.676,2.952,1.125.309,2.769-.385,2.952-1.676h0Z"/><path class="k" d="M26.275,260.41c1.032-9.426,2.092-18.849,3.197-28.267.945-8.057,1.711-16.178,3.319-24.136,1.552-7.683,3.746-15.417,7.957-22.102,3.82-6.064,9.535-10.486,15.71-13.968,8.346-4.707,17.427-7.978,26.336-11.433,1.208-.468,2.045-1.612,1.676-2.952-.317-1.153-1.737-2.148-2.952-1.676-8.386,3.253-16.891,6.365-24.888,10.514-6.902,3.581-13.368,8.117-18.119,14.348-4.801,6.296-7.538,14.033-9.387,21.656-2.044,8.426-2.943,17.051-3.966,25.644-1.284,10.784-2.5,21.577-3.682,32.373-.141,1.29,1.204,2.4,2.4,2.4,1.415,0,2.258-1.106,2.4-2.4h0Z"/><path class="k" d="M242.416,260.363c-21.638,0-43.276,0-64.915,0-20.769,0-41.537,0-62.306,0-17.877,0-35.754,0-53.63,0-13.181,0-26.362,0-39.543,0-6.346,0-12.692,0-19.037,0-.222,0-.444,0-.667,0-3.089,0-3.094,4.8,0,4.8,5.407,0,10.813,0,16.22,0,12.416,0,24.832,0,37.247,0,17.391,0,34.782,0,52.173,0,20.598,0,41.196,0,61.793,0,21.564,0,43.127,0,64.691,0,2.657,0,5.315,0,7.972,0,3.089,0,3.094-4.8,0-4.8h0Z"/><path class="k" d="M453.082,260.363c-6.989,0-13.979,0-20.968,0-9.565,0-19.13,0-28.696,0-8.186,0-16.372,0-24.558,0-3.089,0-3.094,4.8,0,4.8,12.944,0,25.888,0,38.831,0,7.901,0,15.802,0,23.703,0,3.896,0,7.792,0,11.688,0,3.089,0,3.094-4.8,0-4.8h0Z"/><path class="g" d="M118.381,206.801c-30.411.22-60.674.397-71.42.433-1.71.006-3.086,1.393-3.08,3.103.062,17.458.904,77.879,1.546,100.087.049,1.696,1.451,3.029,3.147,3.003,9.711-.15,39.789-.057,69.807.045,30.019-.103,60.096-.195,69.807-.045,1.696.026,3.098-1.308,3.147-3.003.641-22.208,1.484-82.629,1.546-100.087.006-1.71-1.37-3.097-3.08-3.103-10.746-.037-41.009-.213-71.42-.433Z"/><path class="k" d="M46.961,204.835c-1.929.11-3.753.999-4.736,2.729-.669,1.177-.746,2.439-.739,3.753.008,1.664.02,3.327.033,4.991.036,4.521.084,9.042.136,13.562.134,11.625.295,23.249.476,34.873.175,11.255.364,22.51.606,33.763.049,2.271.1,4.542.156,6.813.049,1.998-.178,4.286.279,6.239.646,2.762,3.097,4.279,5.817,4.264.626-.003,1.251-.012,1.877-.016,5.171-.034,10.343-.041,15.515-.051,8.24-.016,16.48-.024,24.719-.03,9.679-.007,19.357-.01,29.036-.009,9.627,0,19.255.004,28.882.012,7.95.007,15.9.015,23.85.033,4.688.01,9.377.014,14.065.054,1.022.009,2.026.052,3.019-.267,1.749-.561,3.147-2.051,3.61-3.828.283-1.084.204-2.302.234-3.417.118-4.431.215-8.862.305-13.293.236-11.583.427-23.166.601-34.75.171-11.35.325-22.701.448-34.051.045-4.141.086-8.283.114-12.425.013-1.978.327-4.29-.652-6.078-1.148-2.096-3.255-2.867-5.519-2.873-4.4-.011-8.799-.011-13.199-.013-7.77-.004-15.54-.007-23.31-.008-9.59-.002-19.18-.003-28.769-.003-9.869,0-19.737,0-29.606.002-8.573.001-17.146.003-25.719.007-5.82.002-11.641.005-17.461.012-1.355.002-2.71.003-4.066.007-3.088.01-3.094,4.81,0,4.8,3.78-.013,7.559-.011,11.339-.014,7.196-.005,14.392-.007,21.589-.009,9.174-.002,18.348-.004,27.522-.004,9.714,0,19.427,0,29.141,0,8.815,0,17.629.003,26.444.005,6.477.002,12.954.005,19.431.01,1.912.002,3.825.003,5.737.007.513,0,1.134-.094,1.638.004,1.16.225.671,2.661.665,3.607-.059,9.189-.174,18.377-.293,27.565-.152,11.757-.326,23.513-.525,35.269-.17,10.079-.349,20.158-.603,30.236-.023.929-.048,1.858-.073,2.787-.017.602.18,1.573-.442,1.872-.411.197-1.234.047-1.703.043-1.813-.015-3.627-.022-5.44-.029-6.344-.024-12.687-.034-19.031-.043-8.733-.012-17.467-.019-26.2-.022-9.644-.004-19.288-.005-28.933-.002-9.076.002-18.152.008-27.228.018-7.028.008-14.057.018-21.085.038-2.284.007-4.568.014-6.852.026-.754.004-1.507.009-2.261.015-.483.004-1.366.153-1.714-.142-.496-.421-.287-1.563-.304-2.168-.026-.943-.05-1.887-.073-2.83-.054-2.153-.103-4.307-.15-6.46-.112-5.141-.211-10.282-.304-15.423-.212-11.748-.394-23.496-.557-35.245-.14-10.14-.27-20.28-.36-30.42-.015-1.724-.029-3.448-.04-5.172-.005-.813-.48-3.453.666-3.519,3.071-.176,3.091-4.977,0-4.8Z"/><path class="j" d="M58.421,300.589c11.658-.074,35.894.001,59.96.084,24.066-.082,46.741-.157,58.399-.084"/><path class="k" d="M58.421,302.989c14.668-.091,29.337-.014,44.004.031,17.769.054,35.537-.027,53.307-.054,7.016-.011,14.032-.021,21.048.023,3.089.019,3.093-4.781,0-4.8-14.336-.089-28.674-.013-43.01.032-17.947.057-35.893-.029-53.84-.056-7.169-.01-14.339-.021-21.508.023-3.088.019-3.094,4.819,0,4.8h0Z"/><path class="k" d="M109.285,250.908c-.004,1.879-.006,3.758-.002,5.637.004,2.119-.287,4.447,1.358,6.082,1.596,1.586,3.788,1.325,5.843,1.323,1.85-.002,3.7-.001,5.551.003,1.087.003,2.136-.04,3.113-.586,1.052-.589,1.918-1.679,2.182-2.863.223-1,.146-2.074.149-3.093.003-.99.004-1.979.004-2.969,0-.904,0-1.808-.002-2.713-.002-1.131-.06-2.231-.687-3.22-.709-1.118-1.874-1.905-3.188-2.082-.863-.116-1.738-.074-2.607-.074-2.064,0-4.129,0-6.193,0-1.203,0-2.39.034-3.43.734-1.315.885-2.019,2.249-2.089,3.821-.056,1.256,1.144,2.456,2.4,2.4,1.348-.06,2.34-1.055,2.4-2.4.027-.61-.142.486.037-.078l-.097.251c.142-.222.119-.202-.069.062.158-.1.266-.125-.088.038.496-.229-.488.008.071-.044-.678.063.247.017.415.017.372,0,.744,0,1.116,0,1.537,0,3.073,0,4.61,0,.717,0,1.435,0,2.152,0,.204,0,.686-.078.872.008l-.279-.025c.256.083.229.067-.08-.046.492.202-.342-.204.063.053l-.16-.212c.128.231.126.197-.007-.101.173.545.05-.514.037.078-.007.305.001.611.002.917.001.763.002,1.525.002,2.288,0,1.577-.001,3.154-.01,4.73,0,.072.045.523-.004.567l.052-.27c-.021.118-.052.234-.093.347.105-.101.069-.464.004-.103l.158-.213c-.192.179-.163.166.086-.039-.55.144.381-.063.014.016-.352.075.604.023.007.007-.348-.009-.697-.002-1.045-.003-1.511-.003-3.022-.004-4.533-.003-.74,0-1.48.001-2.219.003-.3,0-.6.001-.9.002-.119,0-.415.048-.519-.006.305.047.37.047.193,0-.171-.054-.116-.029.164.074-.54-.228.413.272-.065-.05.187.264.209.285.067.063l.096.252-.053-.171c-.058-.266-.053-.235.013.094-.072-.065-.004-.655-.005-.763-.004-.847-.006-1.695-.008-2.542-.002-1.732,0-3.464.003-5.196.003-1.255-1.106-2.458-2.4-2.4-1.303.058-2.397,1.054-2.4,2.4Z"/><path class="i" d="M334.306,256.237l-4.983-.115-91.081-2.105s-.354-.008-.707-.022c0,6.938,0,22.692,0,31.042,0,0,2.399,2.072,2.635,2.276.323.009.567.016.567.016,0,0,81.981,2.541,95.432,2.957,0-12.342,0-20.716,0-34.005l-1.863-.043Z"/><path class="f" d="M238.588,320.261c0-5.699,0-30.531,0-30.531,0-1.465.683-2.402,2.148-2.402l96.485,2.99c0,9.379,0,25.484.003,35.409-32.552-.348-66.399-1.399-96.935-2.526-.956-.035-1.701-.827-1.701-1.784v-1.156Z"/><path class="k" d="M334.821,291.55c0,11.035,0,22.07,0,33.105,0,3.089,4.8,3.094,4.8,0,0-11.035,0-22.07,0-33.105,0-3.089-4.8-3.094-4.8,0h0Z"/><path class="k" d="M333.768,258.049c0,10.309,0,20.618,0,30.928,0,3.089,4.8,3.094,4.8,0,0-10.309,0-20.618,0-30.928,0-3.089-4.8-3.094-4.8,0h0Z"/><path class="k" d="M380.164,266.493c-14.423,6.95-28.311,14.952-42.796,21.777l1.211-.328c-3.066,0-6.138-.173-9.202-.268l-21.697-.672-26.866-.833-24.453-.758-14.385-.446c-.375-.012-.753-.039-1.128-.035-2.197.024-4.072,1.297-4.525,3.523s-.135,4.786-.135,7.042c0,7.962,0,15.923,0,23.885,0,.672-.033,1.353,0,2.024.083,1.697.978,3.194,2.576,3.858,1.756.729,4.171.433,6.05.501,8.532.309,17.064.602,25.598.871,17.606.555,35.215,1.013,52.827,1.3,4.142.068,8.285.152,12.427.171,1.665.008,3.481.212,5.122-.043,1.063-.165,2.125-.962,3.066-1.477,1.074-.588,2.149-1.175,3.224-1.761,7.499-4.088,15.022-8.134,22.484-12.288,3.639-2.026,7.262-4.079,10.863-6.172,2.67-1.552.256-5.702-2.423-4.145-12.759,7.416-25.811,14.31-38.744,21.413l1.211-.328c-16.646,0-33.298-.44-49.937-.884-8.598-.229-17.195-.488-25.792-.77-4.198-.137-8.396-.28-12.594-.427-2.064-.072-4.129-.146-6.193-.22-.985-.036-1.969-.071-2.954-.107-.527-.019-1.055-.039-1.582-.058-.225-.008-.451-.023-.677-.025-.636-.005-.264-.152-.105.045.368.459.306.767.354.223.033-.379,0-.775,0-1.155v-4.281c0-4.226,0-8.452,0-12.679v-11.008c0-.717.074-1.478,0-2.192-.086-.828.049.083-.244-.043.059.025.149-.02.207.006.302.139.957.03,1.285.04l2.399.074,7.445.231c7.514.233,15.029.466,22.543.699,8.875.275,17.749.55,26.624.825l23.359.724,12.748.395c.223.007.446.017.668.021,1.83.029,3.651-1.216,5.265-1.999,1.949-.945,3.888-1.908,5.822-2.885,7.576-3.827,15.046-7.859,22.584-11.759,3.608-1.867,7.234-3.699,10.893-5.463,1.168-.563,1.478-2.229.861-3.284-.698-1.193-2.112-1.426-3.284-.861h0Z"/><path class="f" d="M377.265,201.732c-6.217,3.202-16.142,8.225-21.992,11.518l-9.487,4.106c-2.436,1.383-6.763,3.787-8.947,4.93l-1.053.57c0,.988,0,1.745,0,1.745,0,7.756,0,32.766,0,31.669-.675-.017-1.349-.033-1.349-.033l-96.064-2.221c-1.268,0-1.76-.415-1.76-1.683v-30.751c0-.366,1.097-1.505,1.711-1.875,6.624-4.324,29.798-14.937,38.072-18.252,1.071-.429,2.205-.644,3.359-.642,30.822.034,67.353.918,97.962.918"/><path class="k" d="M338.433,258.705c13.467-6.937,26.885-13.968,40.364-20.881,2.749-1.41.324-5.553-2.423-4.145-13.479,6.913-26.897,13.944-40.364,20.881-2.747,1.415-.322,5.558,2.423,4.145h0Z"/><path class="k" d="M333.387,224.601c0,9.815,0,19.63,0,29.445,0,3.089,4.8,3.094,4.8,0,0-9.815,0-19.63,0-29.445,0-3.089-4.8-3.094-4.8,0h0Z"/><path class="k" d="M380.321,235.115c-.311-10.814-.24-21.675.57-32.467.097-1.294-1.173-2.4-2.4-2.4-1.38,0-2.303,1.102-2.4,2.4-.81,10.792-.881,21.653-.57,32.467.089,3.082,4.889,3.095,4.8,0h0Z"/><path class="k" d="M377.48,238.872c-1.769,10.173-1.68,20.595-1.39,30.883.087,3.082,4.887,3.095,4.8,0-.278-9.833-.473-19.88,1.218-29.607.222-1.276-.342-2.586-1.676-2.952-1.157-.318-2.729.392-2.952,1.676h0Z"/><path class="k" d="M375.659,277.981c.004,8.569.193,17.14.432,25.705.086,3.082,4.886,3.095,4.8,0-.238-8.565-.428-17.136-.432-25.705-.001-3.089-4.801-3.094-4.8,0h0Z"/><path class="g" d="M324.783,232.375c-12.043-.492-25.663-.736-36.771-.999,0,4.218,0,8.771,0,12.989,11.4.558,25.467.593,36.771,1.14,0-4.142,0-13.054,0-13.131Z"/><path class="k" d="M323.739,229.934c-9.842-.385-19.69-.596-29.536-.816-1.069-.024-2.139-.048-3.208-.072-1.208-.027-2.552-.214-3.646.425-1.274.744-1.714,2.085-1.737,3.475-.038,2.305,0,4.614,0,6.92s-.506,5.274,1.891,6.553c1.062.567,2.453.438,3.624.484,1.14.046,2.281.086,3.422.124,2.362.078,4.724.141,7.086.199,4.86.12,9.721.217,14.581.359,2.341.069,4.683.208,7.024.25,2.185.039,3.823-1.288,3.943-3.537.122-2.279,0-4.596,0-6.878,0-2.611.669-6.711-2.805-7.4-1.27-.252-2.591.362-2.952,1.676-.324,1.18.399,2.699,1.676,2.952-2.328-.462-.559-1.734-.719-1.043-.034.146,0,.347,0,.498v1.94c0,1.6,0,3.201,0,4.801,0,1.036-.239,2.391,0,3.403.166.702,1.922-.983,1.061-1.204-.565-.145-1.277-.055-1.864-.078-1.569-.062-3.139-.114-4.709-.162-6.122-.185-12.245-.292-18.368-.459-1.463-.04-2.926-.083-4.389-.133-.714-.024-1.429-.049-2.143-.077-.65-.025-1.467-.214-2.1-.085-1.374.28,1.221-1.021.54,1.24.008-.026-.006-.063,0-.088.032-.129,0-.313,0-.447v-1.879c0-1.834,0-3.668,0-5.501,0-1.043-.1-2.14.04-3.176l-.328,1.211c-1.092.278-1.357.41-.797.396.138.003.276.006.414.01.348.008.696.016,1.044.024.708.016,1.416.032,2.124.048,1.383.031,2.766.062,4.149.093,2.947.066,5.893.133,8.84.205,5.949.146,11.897.315,17.843.547,3.089.121,3.084-4.679,0-4.8Z"/><path class="g" d="M325.836,266.594c-12.043-.492-25.663-.736-36.771-.999,0,4.218,0,8.771,0,12.989,11.4.558,25.467.593,36.771,1.14,0-4.142,0-13.054,0-13.131Z"/><path class="k" d="M324.94,264.158c-10.003-.393-20.012-.606-30.021-.829-1.076-.024-2.152-.048-3.228-.073-1.39-.032-2.83-.18-3.936.837-.922.849-1.092,1.962-1.092,3.131v7.201c0,2.223-.498,5.307,2.078,6.336,1.003.4,2.211.311,3.28.354,1.28.052,2.559.097,3.839.139,2.357.076,4.715.139,7.073.197,4.916.121,9.834.218,14.749.365,2.257.067,4.515.205,6.772.245,2.147.038,3.688-1.275,3.78-3.46.101-2.388,0-4.803,0-7.193,0-2.486.664-6.505-2.657-7.164-1.27-.252-2.591.363-2.952,1.676-.324,1.181.399,2.699,1.676,2.952-.246-.049-.684-1.657-.867-1.264-.041.087.007.276,0,.372-.029.42,0,.852,0,1.273v3.866c0,1.257,0,2.514,0,3.771v1.313c0,1.167-.14-.316.522-.635l1.211-.328c-1.432.172-3.025-.078-4.47-.129-1.589-.056-3.179-.104-4.768-.148-3.283-.091-6.566-.164-9.849-.24-3.19-.074-6.38-.151-9.569-.251-1.497-.047-2.994-.099-4.491-.159-.347-.014-.694-.029-1.041-.043-1.639-.071.904-.045.484,1.408.028-.096-.009-.234,0-.332.125-1.346,0-2.762,0-4.112v-4.987c0-.467.059-.978,0-1.442-.009-.074.02-.171,0-.244l-1.033,1.465c.279.006.559.013.838.019.424.01.848.019,1.273.029,3.259.074,6.518.145,9.777.22,7.542.174,15.083.367,22.621.663,3.089.121,3.084-4.679,0-4.8Z"/><path class="g" d="M325.836,301.338c-12.043-.492-25.663-.736-36.771-.999,0,4.218,0,8.771,0,12.989,11.4.558,25.467.593,36.771,1.14,0-4.142,0-13.054,0-13.131Z"/><path class="k" d="M324.239,298.875c-9.588-.368-19.182-.576-28.775-.79-1.076-.024-2.152-.048-3.228-.072-1.254-.028-2.515-.122-3.632.565-1.351.832-1.911,2.275-1.939,3.798-.041,2.182,0,4.368,0,6.55,0,2.462-.3,5.305,2.436,6.518,1.008.447,2.163.387,3.246.429,1.161.046,2.321.087,3.482.125,2.402.078,4.805.141,7.208.2,4.784.117,9.569.213,14.353.354,2.222.065,4.485.293,6.706.238,2.322-.058,4.019-1.774,4.139-4.075.112-2.145,0-4.324,0-6.471,0-2.763.38-6.768-3.359-7.283-1.282-.177-2.577.311-2.952,1.676-.308,1.121.384,2.774,1.676,2.952,1.052.145-.888-.347-.165-.641-.008.003.004.088,0,.097-.077.16,0,.541,0,.719v2.718c0,1.913-.064,3.839,0,5.751.003.083-.056.408,0,.47-.09-.099.272-.519.323-.588.156-.213.549.037.128-.134-.211-.086-.613-.026-.843-.035-1.958-.079-3.917-.143-5.876-.2-4.099-.12-8.199-.207-12.299-.304-4.031-.095-8.063-.197-12.092-.352-.452-.017-1.061-.151-1.494-.06.071-.015-.297-.024-.319.012.077-.127.465.491.379.421.286.233.062.343.122-.057.107-.715,0-1.535,0-2.256v-6.062c0-.252.049-.554,0-.801-.004-.022.017-.197,0-.206.151.078-.427.543-.452.585-.188.314-.287.037.17.124.247.047.601.014.842.019.426.01.851.019,1.277.029,1.013.023,2.027.045,3.04.068,9.301.207,18.602.413,27.898.77,3.089.118,3.084-4.682,0-4.8Z"/><path class="k" d="M348.646,274.916c5.99-3.768,12.187-7.194,18.564-10.262,1.168-.562,1.478-2.229.861-3.284-.698-1.194-2.111-1.425-3.284-.861-6.377,3.068-12.574,6.494-18.564,10.262-2.608,1.641-.202,5.796,2.423,4.145h0Z"/><path class="k" d="M350.673,264.583c5.99-3.768,12.187-7.194,18.564-10.262,1.168-.562,1.478-2.229.861-3.284-.698-1.194-2.111-1.425-3.284-.861-6.377,3.068-12.574,6.494-18.564,10.262-2.608,1.641-.202,5.796,2.423,4.145h0Z"/><path class="k" d="M350.673,311.78c8.984-5.653,18.28-10.792,27.846-15.393,1.168-.562,1.478-2.229.861-3.284-.698-1.194-2.111-1.425-3.284-.861-9.565,4.601-18.862,9.74-27.846,15.393-2.608,1.641-.202,5.796,2.423,4.145h0Z"/><path class="k" d="M250.227,265.934v11.698c0,1.255,1.104,2.458,2.4,2.4s2.4-1.055,2.4-2.4v-11.698c0-1.255-1.104-2.458-2.4-2.4s-2.4,1.055-2.4,2.4h0Z"/><path class="k" d="M251.28,300.679v11.698c0,1.255,1.104,2.458,2.4,2.4s2.4-1.055,2.4-2.4v-11.698c0-1.255-1.104-2.458-2.4-2.4s-2.4,1.055-2.4,2.4h0Z"/><path class="k" d="M377.717,199.332c-17.065-.002-34.13-.248-51.193-.477-8.633-.116-17.266-.23-25.899-.315-4.254-.042-8.509-.076-12.763-.099-2.069-.011-4.138-.019-6.208-.024-2.046-.004-4.042.002-5.978.758-4.844,1.893-9.588,4.087-14.316,6.25-5.582,2.553-11.138,5.173-16.603,7.968-2.071,1.059-4.136,2.138-6.141,3.318-1.858,1.093-4.279,2.546-4.402,4.938-.136,2.645,0,5.333,0,7.98,0,7.505-.186,15.034,0,22.537.065,2.623,1.547,4.133,4.17,4.25.289.013.58.013.869.02l5.402.125c7.122.165,14.243.329,21.365.494,9.366.216,18.731.433,28.097.649l25.543.59,14.12.326.657.015c3.09.071,3.089-4.729,0-4.8-3.177-.073-6.354-.147-9.532-.22l-22.898-.529-27.721-.641c-8-.185-16-.37-24-.555-3.911-.09-7.823-.169-11.734-.271-.056-.001-.123-.014-.179-.004-.382.067-.422-.191.144.278l.377.294c.108.529.15.631.125.308.225-.819-.013-.099-.006-.165.007-.06,0-.127,0-.187-.012-.976,0-1.953,0-2.93v-12.381c0-4.07,0-8.14,0-12.21,0-.885.186-2.003,0-2.873-.01-.048.018-.119,0-.165.201.5-.658,1.159-.078.758.103-.071.756-.676.6-.563.693-.499,1.469-.912,2.21-1.335,9.73-5.559,20.12-10.142,30.385-14.609.55-.239,1.101-.477,1.652-.714.259-.111.517-.221.776-.331.013-.006.367-.156.139-.059-.211.089.193-.081.231-.097,1.087-.455,2.186-.981,3.334-1.258,1.805-.434,3.881-.161,5.729-.155,2.013.007,4.026.017,6.039.029,8.351.052,16.703.146,25.054.252,16.966.214,33.932.486,50.899.589,3.911.024,7.822.038,11.733.038,3.089,0,3.094-4.8,0-4.8h0Z"/><path class="k" d="M235.135,255.996c0,6.439,0,12.877,0,19.316,0,3.054,0,6.108,0,9.162,0,1.427.525,2.105,1.5,2.947l1.856,1.603c2.327,2.01,5.737-1.371,3.394-3.394l-2.653-2.292.703,1.697c0-9.68,0-19.36,0-29.04,0-3.089-4.8-3.094-4.8,0h0Z"/><path class="k" d="M336.168,220.601c-9.42-.317-18.841-.633-28.261-.95-15.002-.504-30.003-1.009-45.005-1.513-3.425-.115-6.851-.23-10.276-.345-3.09-.104-3.086,4.696,0,4.8,9.42.317,18.841.633,28.261.95,15.002.504,30.003,1.009,45.005,1.513,3.425.115,6.851.23,10.276.345,3.09.104,3.086-4.696,0-4.8h0Z"/><path class="k" d="M338.051,224.358c3.015-1.58,5.986-3.25,8.947-4.93,1.093-.62,1.557-2.204.861-3.284-.712-1.104-2.115-1.524-3.284-.861-2.96,1.68-5.931,3.35-8.947,4.93-1.114.584-1.541,2.229-.861,3.284.731,1.134,2.092,1.485,3.284.861h0Z"/><path class="k" d="M356.485,215.322c7.214-4.052,14.637-7.732,21.992-11.518,1.152-.593,1.49-2.208.861-3.284-.684-1.17-2.127-1.456-3.284-.861-7.355,3.786-14.778,7.466-21.992,11.518-2.693,1.513-.277,5.661,2.423,4.145h0Z"/><path class="k" d="M212.777,334.162c2.38-1.064,4.763-2.123,7.155-3.159,2.311-1.001,4.25-1.821,6.67-2.786,1.162-.463,2.106-1.624,1.676-2.952-.364-1.125-1.704-2.174-2.952-1.676-5.045,2.011-10.014,4.212-14.971,6.429-1.15.514-1.511,2.276-.861,3.284.767,1.189,2.053,1.411,3.284.861h0Z"/><path class="k" d="M224.513,347.891c2.961-2.763,5.923-5.527,8.884-8.29.92-.859.933-2.538,0-3.394-.985-.905-2.413-.916-3.394,0-2.961,2.763-5.923,5.527-8.884,8.29-.92.859-.933,2.538,0,3.394.985.905,2.413.916,3.394,0h0Z"/><path class="k" d="M363.182,332.936c4.978,1.268,10.008,2.321,14.957,3.703,1.208.338,2.665-.416,2.952-1.676.29-1.272-.382-2.591-1.676-2.952-4.949-1.382-9.979-2.435-14.957-3.703-1.215-.309-2.661.396-2.952,1.676-.284,1.248.375,2.621,1.676,2.952h0Z"/><path class="k" d="M355.578,342.972c2.989,3.414,6.032,6.793,9.168,10.073.869.909,2.531.94,3.394,0,.896-.976.927-2.424,0-3.394-3.136-3.28-6.179-6.659-9.168-10.073-.83-.948-2.557-.912-3.394,0-.928,1.01-.885,2.383,0,3.394h0Z"/><path class="g" d="M342.69,179.763c-.265.014-.505.038-.714.072-3.177.52-5.683,1.289-7.833,3.173-2.15,1.884-4.001,3.681-5.58,6.064-2.223,3.356-4,6.139-5.956,9.949-.973,1.896-1.894,3.968-1.725,6.093s2.51,3.771,3.976,3.578c1.229-.161,2.65-.955,3.256-2.037l.688-1.226c-.477,1.301-.99,2.702-.99,2.702-.528,1.441.669,3.943,2.212,4.542,1.543.6,3.34.003,4.619-1.049,0,0,.972-.799,1.943-1.598-.081.287-.163.574-.163.574-.528,1.861,1,4.028,2.489,4.536,1.25.427,3.889.4,4.616-.703,0,0,.977-1.483,1.954-2.966-.016.636-.031,1.272-.031,1.272-.044,1.778,1.083,2.861,2.61,3.537,1.03.456,2.249.143,3.284-.3,4.058-1.739,6.271-6.035,9.334-9.215,1.932-2.006,4.276-3.613,6.843-4.692,1.917-.805,2.923-3.138,3.62-5.096.597-1.679,0-3.118-.292-4.701-.444-2.412-1.196-3.357-4.333-5.764-2.34-1.795-4.534-3.587-7.56-4.719-3.123-.433-12.435-2.228-16.268-2.026Z"/><path class="k" d="M336.213,190.181c-2.699,3.598-5.347,7.229-7.707,11.061-.606.985-1.196,1.98-1.772,2.983-.554.964-.797,1.486-1.774,1.994-.364.19-.462.174-.991-.242-.613-.481-.751-.96-.698-1.711.161-2.281,1.612-4.492,2.693-6.44,1.154-2.078,2.412-4.095,3.711-6.084,1.239-1.897,2.532-3.623,4.163-5.205,1.393-1.351,2.8-2.679,4.644-3.377.943-.357,1.935-.595,2.923-.794.333-.067.672-.114,1.004-.184.661-.138-.408.022-.021,0,.296-.016.59-.035.887-.037,1.54-.011,3.086.166,4.613.351,3.15.383,6.284.961,9.423,1.453,3.631.57,7.552,3.569,9.573,6.588.991,1.48,1.55,2.937,2.013,4.694.208.788.659,2.206.301,2.959-.215.452-1.039.891-1.506,1.147-1.059.579-2.2.985-3.261,1.564-1.161.633-2.24,1.389-3.276,2.207-1.958,1.545-3.506,3.43-5.051,5.37-1.37,1.72-2.783,3.587-4.681,4.754-.65.4-1.654,1.025-2.449.829-.702-.173-1.111-.735-1.122-1.324-.059-3.085-4.859-3.095-4.8,0,.052,2.743,1.8,4.947,4.372,5.852,2.923,1.028,6.013-.719,8.22-2.53,1.909-1.567,3.36-3.599,4.905-5.503,1.706-2.102,3.576-3.952,5.94-5.306,2.17-1.243,4.656-1.885,6.289-3.909,1.932-2.395,1.335-5.675.447-8.395-1.646-5.044-5.044-8.963-9.637-11.622-1.177-.681-2.486-1.372-3.789-1.772-.711-.218-1.496-.274-2.233-.394-1.953-.318-3.905-.647-5.862-.939-3.995-.596-7.968-1.262-11.965-.401-5.423,1.168-9.594,4.926-12.767,9.343-1.675,2.331-3.196,4.816-4.624,7.305-1.436,2.504-3.128,5.241-3.664,8.114-.594,3.187.375,6.304,3.407,7.858,2.831,1.451,6.31.167,8.003-2.429,1.71-2.623,3.162-5.406,4.919-8.009,1.702-2.522,3.518-4.965,5.344-7.398.778-1.038.167-2.682-.861-3.284-1.227-.718-2.503-.179-3.284.861h0Z"/><path class="k" d="M325.499,207.493c-.886,2.901,1.076,6.497,3.888,7.495,2.479.88,5.676-.113,7.366-2.103,2.684-3.16,4.854-6.784,7.349-10.094.711-.943,1.38-1.8,2.272-2.855.788-.933,1.607-1.841,2.498-2.677,2.257-2.119-1.143-5.508-3.394-3.394-2.995,2.813-5.412,6.283-7.796,9.608-1.1,1.534-2.177,3.085-3.279,4.619-.197.274-.395.547-.595.819-.088.119-.178.236-.265.356-.312.425.247-.287.021-.027-.24.277-.491.584-.727.744-.17.115-.53.308-.62.343-.271.107-.508.163-.64.176-.391.038-.329-.002-.639-.05.094.014-.055-.014-.071-.027-.247-.189-.557-.651-.678-.984.049.136-.143-.719-.09-.252-.013-.11-.017-.228-.01-.338.023-.372-.142.505.038-.084.904-2.961-3.727-4.227-4.629-1.276h0Z"/><path class="k" d="M334.11,209.962c-.636,2.708.729,5.751,3.204,7.078,1.973,1.058,4.978,1.083,6.919-.069,1.499-.89,2.427-2.94,3.387-4.349,1.195-1.754,2.543-3.66,3.763-5.236,1.356-1.752,3.007-3.725,4.766-5.282.971-.86.877-2.517,0-3.394-.964-.964-2.421-.862-3.394,0-3.609,3.196-6.446,7.344-9.151,11.301-.536.784-1.065,1.574-1.589,2.366-.106.16-.211.32-.317.48-.062.094-.412.461-.164.251.064-.119.156-.212.276-.28-.234.121-.221.121.039,0-.082.025-.773.183-.528.145.238-.036-.497.022-.59.022-.081,0-.852-.05-.563-.014.3.037-.385-.092-.454-.105-.225-.075-.218-.067.022.022-.099-.051-.195-.109-.287-.173-.134-.089-.126-.084.024.016-.121-.11-.235-.226-.344-.348.192.223-.221-.355-.269-.448-.074-.148-.079-.151-.016-.009-.056-.159-.102-.321-.138-.486.022.225.025.19.01-.107-.057.224-.05.19.021-.101.296-1.261-.393-2.6-1.676-2.952-1.216-.334-2.655.409-2.952,1.676h0Z"/><path class="m" d="M167.896,62.192c-3.594-13.482-11.868-22.297-19.672-27.621-7.905-5.423-17.114-8.866-28.824-8.866s-21.709,3.54-29.688,9.473c-9.263,6.889-19.753,19.16-20.592,39.022-.218,5.153.513,11.122,2.225,17.122.707-.298,1.573-.507,2.633-.545,1.523-.054,3.303.423,4.624,1.693l1.981-.019,4.559-5.472c4.908-5.469,13.57-13.712,19.648-16.9.713-.374,1.628.132,1.917,1.323.279,1.151.278,2.025.187,2.852-.138,1.256,1.081,2.169,2.116,1.594,4.339-2.41,12.071-7.262,17.554-9.573,0,0,.969-.406,2.274-.953,3.603,1.021,5.856,1.951,5.856,1.951,2.617,1.138,4.608,2.231,7.488,4.709,4.935,4.246,9.666,10.072,11.762,15.344l4.139,5.359,2.351-.217c1.321-1.27,3.101-1.746,4.624-1.693.982.035,1.797.216,2.473.482,1.679-6.488,2.4-11.216,2.153-17.06-.184-4.361-.814-8.356-1.788-12.008Z"/><path class="k" d="M118.185,131.669c.3-.159.603-.31.91-.454.521-.245-.499.175.1-.037.222-.079.444-.159.67-.228.612-.187,1.234-.308,1.864-.419-.351.062-.164.019.079-.007.183-.02.367-.036.551-.05.444-.033.889-.049,1.335-.052.415-.002.83.007,1.245.031.191.011.382.025.573.042.069.006.781.11.209.016.623.103,1.238.225,1.841.414.251.078.506.215.76.272-.072-.016-.493-.235-.214-.085.105.056.216.103.322.159.155.082.308.169.457.262.199.125.745.547-.002-.035.988.77,2.444,1.035,3.394,0,.79-.861,1.058-2.57,0-3.394-2.381-1.856-5.344-2.462-8.325-2.482-2.887-.019-5.635.554-8.188,1.902-1.112.587-1.542,2.227-.861,3.284.729,1.131,2.094,1.489,3.284.861h0Z"/><path class="k" d="M122.587,111.196c.35,1.335.686,2.691.887,4.057l-.086-.638c.024.187.034.372.015.56l.086-.638c-.013.087-.032.169-.062.252l.242-.573c-.026.059-.053.109-.089.162l.375-.486c-.042.051-.081.09-.133.131l.486-.375c-.103.066-.211.119-.321.17l.573-.242c-.177.074-.352.128-.542.158l.638-.086c-.171.02-.338.019-.508,0l.638.086c-.192-.027-.38-.073-.572-.099-.319-.1-.638-.114-.957-.043-.319.014-.617.109-.892.285-.498.291-.973.862-1.103,1.434-.14.614-.11,1.304.242,1.849.312.484.835,1.022,1.434,1.103.465.063.916.18,1.389.201.74.032,1.423-.197,2.082-.501.822-.378,1.466-1.135,1.684-2.019.186-.751.108-1.386-.019-2.139-.221-1.307-.523-2.602-.859-3.885-.152-.579-.588-1.133-1.103-1.434s-1.273-.429-1.849-.242c-1.25.404-2.018,1.651-1.676,2.952h0Z"/><path class="k" d="M102.191,99.468c1.542.038,3.085.1,4.619.268.163.018.325.037.487.057.516.064-.549-.079-.035-.005.323.046.645.097.967.152.711.121,1.418.263,2.124.414,1.225.261,2.653-.362,2.952-1.676.275-1.207-.363-2.672-1.676-2.952-3.119-.666-6.253-.978-9.438-1.057-1.256-.031-2.457,1.126-2.4,2.4.059,1.327,1.054,2.367,2.4,2.4h0Z"/><path class="k" d="M100.714,108.963c3.32-.041,6.643-.087,9.963,0,1.256.033,2.457-1.127,2.4-2.4-.06-1.329-1.054-2.365-2.4-2.4-3.32-.087-6.643-.041-9.963,0-1.255.016-2.459,1.093-2.4,2.4.058,1.287,1.055,2.417,2.4,2.4h0Z"/><path class="k" d="M137.898,99.191c2.651.413,5.274.98,7.872,1.648,1.214.312,2.661-.398,2.952-1.676.285-1.25-.375-2.618-1.676-2.952-2.598-.668-5.221-1.236-7.872-1.648-.66-.103-1.25-.109-1.849.242-.498.291-.973.862-1.103,1.434-.14.614-.11,1.304.242,1.849.316.491.831,1.009,1.434,1.103h0Z"/><path class="k" d="M138.451,108.854c2.306.107,4.614.18,6.92.3,1.256.065,2.456-1.151,2.4-2.4-.061-1.356-1.055-2.33-2.4-2.4-2.306-.12-4.613-.193-6.92-.3-1.256-.058-2.456,1.145-2.4,2.4.06,1.35,1.055,2.338,2.4,2.4h0Z"/><path class="k" d="M80.299,90.773c-2.79-2.503-6.794-3.089-10.204-1.502-2.464,1.148-3.949,3.466-4.638,6.028-1.614,6.004-.082,12.974,3.337,18.098,2.316,3.471,5.983,6.616,10.442,6.026,1.285-.17,2.4-.981,2.4-2.4,0-1.165-1.106-2.571-2.4-2.4-3.33.441-5.589-2.25-7.066-4.915-1.287-2.321-2.244-5.001-2.456-7.655-.197-2.471-.188-5.532,1.342-7.627.095-.132.076-.106-.055.078.1-.115.204-.227.313-.333.047-.042.531-.427.305-.268.496-.349,1.019-.538,1.614-.648,1.302-.241,2.671.015,3.671.912,2.294,2.057,5.699-1.326,3.394-3.394h0Z"/><path class="k" d="M162.13,94.167c.953-.855,2.239-1.128,3.491-.95.65.093,1.257.308,1.794.686-.146-.102.829.86.506.444,1.605,2.064,1.597,5.236,1.399,7.707-.207,2.598-1.132,5.212-2.37,7.496-1.472,2.717-3.759,5.522-7.152,5.073-1.287-.17-2.4,1.225-2.4,2.4,0,1.438,1.109,2.229,2.4,2.4,7.305.967,11.8-7.073,13.565-12.979,1.564-5.23,1.546-13.307-3.526-16.686-3.407-2.27-8.14-1.642-11.102,1.015-2.304,2.067,1.099,5.452,3.394,3.394h0Z"/><path class="k" d="M157.735,113.293c-.613,2.97-1.768,5.888-2.773,8.416-.135.34.234-.486-.007.008-.082.169-.156.342-.237.511-.201.423-.413.841-.632,1.255-.503.956-1.042,1.893-1.603,2.815-2.94,4.828-6.523,9.387-10.911,12.981-2.39,1.957-5.08,3.496-8.055,4.187-3.008.698-1.735,5.328,1.276,4.629,6.26-1.454,11.478-6.003,15.569-10.758,3.392-3.942,6.55-8.372,8.707-13.127.156-.343.302-.692.446-1.04.042-.101.249-.6.109-.273-.145.341.012-.015.037-.07.138-.305.265-.617.393-.926.175-.422.344-.847.504-1.275.739-1.971,1.379-3.992,1.805-6.056.622-3.015-4.003-4.304-4.629-1.276h0Z"/><path class="k" d="M76.554,114.424c1.865,8.215,5.721,15.891,11.219,22.273,5.319,6.173,12.173,11.078,20.379,12.299,1.28.19,2.58-.32,2.952-1.676.311-1.132-.386-2.76-1.676-2.952-7.492-1.114-13.404-5.427-18.261-11.064-4.962-5.759-8.307-12.761-9.985-20.155-.684-3.011-5.312-1.737-4.629,1.276h0Z"/><path class="k" d="M89.034,114.102c-.127,3.626-.669,7.741,1.361,10.995.993,1.591,2.572,2.823,4.448,3.143,2.235.382,4.819-.032,6.325-1.883,1.655-2.034,1.7-4.593,1.313-7.069-.195-1.244-1.816-2.044-2.952-1.676-1.353.438-1.885,1.619-1.676,2.952.068.434-.043-.512.005.044.015.176.033.351.042.527.019.368.008.732-.01,1.099-.029.585.096-.411.007-.01-.035.155-.062.311-.104.465-.037.135-.128.301-.143.441.046-.427.203-.42.085-.218-.043.073-.079.151-.123.224-.023.038-.125.159-.138.213.011-.048.402-.44.14-.189-.069.066-.233.184-.272.268.129-.277.413-.274.176-.139-.078.044-.15.095-.228.139-.058.032-.129.056-.184.093-.186.126.546-.155.106-.059-.175.038-.354.085-.528.128-.272.067.237-.044.225-.028-.02.025-.342.023-.343.023-.188.008-.374,0-.562-.004-.56-.009.43.125-.092-.006-.155-.039-.31-.071-.462-.119-.062-.02-.123-.048-.186-.064-.284-.075.459.254.222.093-.117-.079-.256-.131-.377-.206-.474-.294.257.267.007.027-.098-.094-.448-.551-.561-.571.029.005.353.517.171.219-.029-.047-.064-.091-.094-.137-.081-.122-.157-.247-.229-.375-.062-.11-.115-.223-.174-.335-.229-.436.075.215.052.14-.074-.237-.172-.466-.243-.705-.116-.393-.198-.793-.269-1.196-.036-.209-.007-.177.004.044-.013-.275-.055-.551-.071-.826-.033-.558-.037-1.117-.026-1.676.024-1.262.115-2.522.159-3.783s-1.135-2.457-2.4-2.4c-1.338.06-2.353,1.054-2.4,2.4h0Z"/><path class="k" d="M148.379,31.791c-14.966-9.715-34.513-11.177-50.832-3.963-13.227,5.848-23.744,17.714-28.218,31.422-3.315,10.155-3.321,20.991-.685,31.294.765,2.991,5.396,1.723,4.629-1.276-3.895-15.226-1.098-31.809,9.164-43.983,4.176-4.954,8.922-8.891,14.586-11.884,7.285-3.85,15.524-5.469,23.727-5.281,9.052.208,17.621,2.892,25.206,7.816,2.599,1.687,5.007-2.467,2.423-4.145h0Z"/><path class="k" d="M170.186,90.543c1.047-4.281,1.829-8.639,1.931-13.055.099-4.274-.33-8.594-1.173-12.783-1.418-7.054-4.31-13.866-8.555-19.686-2.086-2.859-4.431-5.502-7.05-7.882-2.282-2.074-5.686,1.311-3.394,3.394,9.932,9.025,15.147,21.645,15.378,35.007.081,4.673-.658,9.202-1.766,13.729-.734,3,3.894,4.28,4.629,1.276h0Z"/><path class="k" d="M133.482,69.346c4.093,1.792,7.419,4.446,10.506,7.655,3.047,3.169,6.007,6.934,7.641,10.964.487,1.2,1.598,2.048,2.952,1.676,1.138-.313,2.166-1.744,1.676-2.952-1.954-4.821-5.068-9.068-8.633-12.829-3.389-3.575-7.188-6.675-11.72-8.659-1.186-.52-2.576-.348-3.284.861-.595,1.018-.333,2.761.861,3.284h0Z"/><path class="k" d="M86.838,88.676c4.882-5.421,10.281-10.755,16.358-14.831.621-.417,1.253-.818,1.9-1.193.161-.093.391-.165.521-.294.371-.369.007.056.029-.05l-1.231-.296-.023-.029c-.048.175.08.365.106.543.13.903-.109,1.802.076,2.699.216,1.049.809,2.002,1.73,2.579,1.887,1.183,3.604.307,5.316-.676,1.586-.91,3.16-1.841,4.742-2.76,3.714-2.157,7.457-4.333,11.414-6.021,1.192-.509,1.457-2.265.861-3.284-.722-1.234-2.086-1.372-3.284-.861-3.54,1.51-6.904,3.42-10.234,5.338-1.652.952-3.293,1.92-4.942,2.877-.629.365-1.258.728-1.891,1.085-.035.02-.445.202-.487.272l1.042-.031.418.515c.124-.06.091-.798.09-.968-.013-2.102-.599-4.564-2.734-5.445-1.899-.783-3.596.404-5.149,1.399-3.18,2.037-6.12,4.479-8.93,6.993-3.185,2.849-6.23,5.866-9.09,9.042-2.062,2.29,1.322,5.695,3.394,3.394h0Z"/><path class="g" d="M252.419,199.023c5.48-3.771,12.698-4.896,19.066-2.972.807.244,1.617.543,2.269,1.077,1.59,1.302,1.844,3.595,1.979,5.646.057.859.108,1.752-.212,2.551-.453,1.131-1.62,1.883-2.83,2.032s-2.439-.238-3.478-.874c-.532-.325-1.053-.726-1.671-.804-.723-.091-1.415.277-2.051.633-3.018,1.692-6.045,3.39-8.827,5.448-1.274.942-2.513,1.97-3.972,2.587-1.514.641-3.194.805-4.837.729-1.646-.075-3.45-.486-4.405-1.828-1.346-1.889-.334-4.526.944-6.462,1.902-2.882,4.346-5.405,7.165-7.4"/><path class="k" d="M253.63,201.095c3.985-2.686,8.674-3.901,13.466-3.484,1.707.149,4.818.382,5.672,2.103.372.751.457,1.687.524,2.512.064.79.419,2.138-.425,2.605-.712.394-1.625.033-2.267-.318-1.359-.744-2.5-1.465-4.127-1.151-1.242.24-2.341.959-3.429,1.572-1.302.735-2.599,1.478-3.872,2.262-2.31,1.422-4.375,3.271-6.73,4.599-1.69.953-4.624,1.429-6.445.51-2.008-1.013.248-4.029,1.056-5.159,1.56-2.181,3.542-4.122,5.717-5.686,1.051-.755,1.559-2.09.861-3.284-.607-1.038-2.226-1.622-3.284-.861-2.717,1.953-5.072,4.222-7.072,6.906-1.834,2.461-3.596,5.686-2.565,8.839,1.072,3.281,4.451,4.376,7.593,4.432,1.693.03,3.448-.201,5.026-.829,1.702-.677,3.083-1.752,4.545-2.829,2.769-2.039,5.78-3.855,8.827-5.448.773-.404.513-.287,1.299.171.644.375,1.34.701,2.053.917,1.713.519,3.667.404,5.235-.498,3.202-1.841,3.089-5.471,2.576-8.68-.569-3.554-2.714-5.708-6.134-6.672-6.891-1.944-14.597-.667-20.524,3.328-2.548,1.717-.148,5.878,2.423,4.145h0Z"/></g></g></svg>