<svg xmlns="http://www.w3.org/2000/svg" width="360.22" height="351.725" viewBox="0 0 360.22 351.725"><defs><style>.a{fill:#fff;}.b{fill:#211715;}.c{fill:#baa191;}.d{fill:#645d5c;}.e{fill:none;}.f{fill:#febe69;}</style></defs><path class="a" d="M303.111,64.375a6.337,6.337,0,0,1,4.5-1.3,5.717,5.717,0,0,1,4.948,2.962c1.574,2.95,1.222,8.207-.116,11.405a16.579,16.579,0,0,1-5.777,7.762,12.185,12.185,0,0,1-5.918,1.766c-.185.516-.315.884-.315.884-.658,1.634-2.277,4.525-2.277,4.525a56.024,56.024,0,0,1-5.855,8.345,51.083,51.083,0,0,0,.516,9.059,5.259,5.259,0,0,0,.657,2.135,4.889,4.889,0,0,0,1.449,1.324,26.512,26.512,0,0,0,4.543,2.468c-7.447,11.71-21.6,15.626-28.177,16.763a4.921,4.921,0,0,0-3.032,1.847c-.7.9-1.5,1.914-2.151,2.9-.158-.625-2.063-5.173-3.841-5.735-4.265-1.347-10.068-3.811-13.743-8.03-.083-.1-1.371-1.611-2.156-2.618l.409-.17c3.251-1.348,6.357-2.109,8.544-4.66.208-.245.412-.5.6-.748a32.63,32.63,0,0,1-15.884-6.317C232.7,103.686,229.08,94.881,227.345,85c-1-5.7-1.951-11.9-3.175-18.08,0,0-9.056-31.047,27.611-31.047C302.447,35.873,303.111,64.375,303.111,64.375Z"/><path class="a" d="M100.739,207.023a52.8,52.8,0,0,0,3.155-6.5c1.345-3.612,1.765-8.24-1.918-10.343a3.352,3.352,0,0,0-.745-.309c-3.931-1.136-11.543-1.807-23.208-1.8-12.33,0-19.335,1.524-23.3,3.214a4.81,4.81,0,0,0-2.413,5.774l.012.043c1.658,6.211,3.738,11.181,7.692,15.018,3.543,3.438,8.521,5.315,13.105,6.018a34.988,34.988,0,0,0,13.8-.736A21.326,21.326,0,0,0,100.739,207.023Z"/><path class="b" d="M2.4,244.917l74.1-4.674,20.886-1.317a2.456,2.456,0,0,0,2.4-2.4,2.421,2.421,0,0,0-2.4-2.4l-74.1,4.674L2.4,240.117a2.456,2.456,0,0,0-2.4,2.4,2.421,2.421,0,0,0,2.4,2.4Z"/><path class="b" d="M28.03,211.528l15.564-.982a2.4,2.4,0,1,0,0-4.8l-15.564.982a2.4,2.4,0,0,0,0,4.8Z"/><path class="b" d="M102.811,208.235c2.306-4.079,4.94-8.906,4.372-13.763a8.25,8.25,0,0,0-3.7-6.188,12.862,12.862,0,0,0-4.838-1.426,101.12,101.12,0,0,0-13.351-1.1,145.965,145.965,0,0,0-17.549.329,53.745,53.745,0,0,0-11.515,2.081,10.2,10.2,0,0,0-4.64,2.467,7.677,7.677,0,0,0-1.527,7.3c1.346,5.023,3.23,9.927,6.538,14a24.651,24.651,0,0,0,13.626,8.072A35.133,35.133,0,0,0,90.707,218.7a24.213,24.213,0,0,0,12.1-10.461c1.551-2.679-2.6-5.1-4.145-2.423a19.333,19.333,0,0,1-8.212,7.783c-4.573,2.264-10.168,2.822-15.194,2.391-4.448-.38-9.2-1.844-12.659-4.763a23.386,23.386,0,0,1-6.651-10.431c-.38-1.092-.719-2.2-1.032-3.311a5.26,5.26,0,0,1-.364-2.425c.276-1.444,1.177-1.65,2.37-2.062a41.911,41.911,0,0,1,8.713-1.882,118.318,118.318,0,0,1,15.024-.636c4.531.041,9.076.168,13.588.616a39.6,39.6,0,0,1,4.567.659c1.339.274,2.682.57,3.279,1.876.784,1.717.279,3.9-.3,5.643a37.686,37.686,0,0,1-3.128,6.542C97.144,208.505,101.289,210.927,102.811,208.235Z"/><path class="b" d="M59.377,198.229A99.166,99.166,0,0,0,77.8,199.736a86.434,86.434,0,0,0,21.078-2.492c2.988-.773,1.722-5.4-1.276-4.629a80.951,80.951,0,0,1-19.8,2.321A92.22,92.22,0,0,1,60.653,193.6a2.466,2.466,0,0,0-2.952,1.677,2.42,2.42,0,0,0,1.676,2.952Z"/><path class="b" d="M247.412,122.982c2.851-1.175,5.818-2.057,8.265-4a11.548,11.548,0,0,0,2.967-3.526,14.21,14.21,0,0,0,1.2-5.473,2.408,2.408,0,0,0-2.4-2.4,2.464,2.464,0,0,0-2.4,2.4c-.033.35-.071.7-.107,1.048-.019.192-.039.385-.06.577q-.015.144-.033.288l.033-.255a2.613,2.613,0,0,1-.229,1.033c-.027.093-.058.184-.093.274l.1-.238a2.632,2.632,0,0,1-.245.481c-.164.29-.357.557-.546.83-.166.24.276-.332-.015.014-.115.137-.226.275-.345.409a9.092,9.092,0,0,1-.655.662c-.1.094-.209.182-.313.274-.42.375.426-.291-.033.03a14.052,14.052,0,0,1-1.532.943c-.243.128-.491.249-.74.366-.152.07-.3.137-.456.2-.448.2.45-.178-.047.021-1.195.479-2.405.92-3.595,1.411a2.634,2.634,0,0,0-1.434,1.1,2.448,2.448,0,0,0-.242,1.849c.36,1.114,1.709,2.188,2.952,1.676Z"/><path class="b" d="M289.9,100.636a53.18,53.18,0,0,0,.2,6.473c.214,2.275.283,4.88,1.823,6.707a15.053,15.053,0,0,0,4.78,3.249,30.289,30.289,0,0,0,5.971,2.25,2.4,2.4,0,1,0,1.276-4.629,24.047,24.047,0,0,1-4.566-1.638q-1.167-.569-2.275-1.251c-.363-.223-.722-.455-1.073-.7-.039-.026-.376-.28-.257-.181s-.3-.309-.3-.309c.174.207-.033-.057-.067-.144.077.191-.055-.2-.056-.209-.1-.419-.178-.841-.239-1.268-.114-.8-.2-1.677-.268-2.512a53.194,53.194,0,0,1-.145-5.841,2.4,2.4,0,0,0-4.8,0Z"/><path class="c" d="M289.069,349.313c-.573-5.67-1.409-17.751,2.435-21.512,5.73-2.28,24.317-10.254,27.815-12.486,3.51-2.257,7.175-3.892,9.562-6.208,3.641-3.534,6.888-6.912,8.786-11.066,3.236-7.067,7.318-15.507,2.257-37l-4.52-11.5s-6.421-16.68-9.111-28.182c1.719.743,3.652,1.308,7.889,2.644,1.4-3.4,3.651-8.657,4.691-11.654,8.448-24.358,14.491-57.7-6.184-77.9A78,78,0,0,0,306.238,117.5c-1.425-.548-5.31-1.841-6.494-2.232-7.367,12.059-21.793,16.06-28.456,17.211a4.921,4.921,0,0,0-3.032,1.847c-.7.9-1.5,1.914-2.151,2.9-.158-.625-2.063-5.173-3.841-5.735-4.265-1.347-10.068-3.811-13.743-8.03-.134-.168-3.424-4.01-2.633-3.468-6.537,2.213-13.114,4.237-18.639,7.338a30.854,30.854,0,0,0-13.738,16.143c-1.611,4.391-5.68,17.712-9.792,23.44l41.033,166.563Z"/><path class="d" d="M229.971,61.517q-3.353.738-7.036,1.209a70.954,70.954,0,0,1-.747-18.218c.792-7.114,3.572-15.225,7.813-20.964,7.345-9.94,18.867-16.466,33.624-18.207a44.164,44.164,0,0,1,17.254,1.115c2.919-3.636,9.459-4.489,14.163-3.864a20.5,20.5,0,0,1,10.5,4.438,23.679,23.679,0,0,1,8.221,11.144C315.475,23,315.453,29.1,312.1,33.035q.507,1.358.964,2.783a39.042,39.042,0,0,1,1.894,11.887c0,4.072.313,13.3-2,19.08l-.4-.747a5.717,5.717,0,0,0-4.948-2.962,6.337,6.337,0,0,0-4.5,1.3l-6.516,4.97-6.458-6.812a90.957,90.957,0,0,0-5.6-11.129C282.271,47.6,276.486,41.029,271.18,38,259.453,47.817,248.221,57.5,229.971,61.517Z"/><path class="b" d="M252.476,99.085a13.894,13.894,0,0,0,6.8,1.043,13.642,13.642,0,0,0,3.351-.653,25.028,25.028,0,0,0,3.511-1.8A2.422,2.422,0,0,0,267,94.394a2.451,2.451,0,0,0-3.284-.861c-.471.257-.929.537-1.394.807-.246.143-.494.284-.75.411-.07.035-.452.2-.09.053s.015-.01-.059.017a9.387,9.387,0,0,1-1.209.35c-.215.048-.432.089-.649.125-.071.012-.458.072-.1.018.4-.06-.153.011-.19.014a15.3,15.3,0,0,1-2.741-.014c-.326-.028.009-.012.142.024-.1-.028-.219-.033-.324-.051-.236-.04-.471-.089-.7-.146-.2-.048-.394-.1-.589-.164s-.853-.334-.166-.037a2.467,2.467,0,0,0-3.284.861c-.547,1.036-.369,2.751.861,3.284Z"/><path class="b" d="M250.494,78.508a43.71,43.71,0,0,0-1.856,4.054l.242-.574a5.092,5.092,0,0,0-.569,2.121,3.152,3.152,0,0,0,.405,1.556,3.8,3.8,0,0,0,1.152,1.165,3.621,3.621,0,0,0,1.481.652c.458.079.9.091,1.355.128a2.4,2.4,0,0,0,1.7-4.1,2.68,2.68,0,0,0-1.7-.7c-.218-.018-.438-.01-.656-.034l.638.086a2.1,2.1,0,0,1-.454-.116l.574.242a2.4,2.4,0,0,1-.515-.3l.486.376a2.7,2.7,0,0,1-.212-.187l.376.485a.847.847,0,0,1-.109-.18l.242.573a.778.778,0,0,1-.036-.136l.086.638a1.331,1.331,0,0,1,0-.3l-.086.638a2.906,2.906,0,0,1,.2-.688l-.242.574c.149-.347.289-.7.435-1.044l-.242.573c.442-1.045.936-2.07,1.452-3.08a2.547,2.547,0,0,0,.242-1.85,2.448,2.448,0,0,0-1.1-1.434,2.4,2.4,0,0,0-3.284.861Z"/><path class="b" d="M290.606,106.006a52.67,52.67,0,0,0,12.14-17.513,2.414,2.414,0,0,0-1.676-2.952,2.461,2.461,0,0,0-2.953,1.676c.235-.571-.154.329-.229.487-.154.325-.314.647-.476.969-.306.6-.623,1.2-.946,1.8-.6,1.113-1.267,2.193-1.952,3.257a48.816,48.816,0,0,1-7.3,8.883,2.4,2.4,0,0,0,3.394,3.394Z"/><path class="e" d="M292.938,11.756A43.621,43.621,0,0,0,263.4,5.527c-14.805,1.885-26.317,8.546-33.6,18.6-4.206,5.8-6.923,13.975-7.653,21.128a72.977,72.977,0,0,0,2.426,24.925"/><path class="b" d="M279.765,107.17c-9.626,5.189-21.012,8.062-31.52,3.693a27.86,27.86,0,0,1-11.956-8.987,38.417,38.417,0,0,1-5.91-13.961c-1.652-7.129-2.481-14.453-3.895-21.633a2.424,2.424,0,0,0-2.952-1.677,2.449,2.449,0,0,0-1.676,2.953c1.338,6.794,2.2,13.688,3.635,20.461a43.9,43.9,0,0,0,6.238,15.688c6.683,9.8,19,15.012,30.684,13.982a51.1,51.1,0,0,0,19.775-6.375c2.72-1.466.3-5.612-2.423-4.144Z"/><path class="a" d="M289.477,349.265l-.408.048c-.573-5.67-1.409-17.751,2.435-21.512,5.73-2.28,24.317-10.254,27.815-12.486,3.51-2.257,7.175-3.892,9.562-6.208,3.641-3.534,6.888-6.912,8.786-11.066a42.847,42.847,0,0,0,4.327-13.756l1.511.9,5.1,3.032a22.185,22.185,0,0,1,8.691,13.764c1.134,5.444.322,11.1-1.1,16.486-3.235,12.177-16.5,19.757-28.2,23.1A259.74,259.74,0,0,1,289.477,349.265Z"/><path class="b" d="M342.294,287.256c1.572.936,3.161,1.848,4.719,2.808a17.24,17.24,0,0,1,5.921,6.739,23.177,23.177,0,0,1,2.478,11.6A34.6,34.6,0,0,1,353,320.463c-2.632,6.222-8.128,10.759-13.9,13.974-6.489,3.616-13.654,5.469-20.829,7.192a249.958,249.958,0,0,1-29.2,5.284,2.474,2.474,0,0,0-2.4,2.4,2.415,2.415,0,0,0,2.4,2.4,261.012,261.012,0,0,0,27.889-4.847c8.032-1.842,16.124-3.829,23.462-7.687,6.558-3.448,12.826-8.453,16.2-15.188a37.816,37.816,0,0,0,3.386-12.823,29.141,29.141,0,0,0-1.633-13.919,23.332,23.332,0,0,0-8.564-11.105c-1.656-1.072-3.4-2.024-5.1-3.033-2.661-1.582-5.078,2.566-2.422,4.145Z"/><path class="b" d="M291.469,349.313a80.231,80.231,0,0,1-.46-10.98,27.613,27.613,0,0,1,.609-5.259c.1-.453.224-.9.366-1.345.1-.315.266-.744.269-.75a9.4,9.4,0,0,1,.508-.943,3.755,3.755,0,0,1,.254-.372c-.291.374.157-.135.186-.166l-1.059.618c6.656-2.654,13.237-5.529,19.762-8.489,2.649-1.2,5.338-2.383,7.881-3.8,4.258-2.375,8.585-4.811,12.061-8.264a39.157,39.157,0,0,0,8.485-11.6,53.214,53.214,0,0,0,2.868-7.483c2.259-8,1.662-16.475.193-24.562a32.313,32.313,0,0,0-1.354-6.014l-1.478-3.764-2.841-7.233a2.474,2.474,0,0,0-2.953-1.676,2.418,2.418,0,0,0-1.676,2.952l3.015,7.675c.472,1.2,1,2.4,1.422,3.621a46.149,46.149,0,0,1,1.53,7.418c1.393,8.589,1.233,16.572-1.965,24.57-.059.149-.121.3-.182.443.23-.554-.015.032-.054.122-.123.282-.246.565-.372.846q-.436.981-.889,1.955a28.632,28.632,0,0,1-5.325,7.48,32.343,32.343,0,0,1-7.145,5.961c-2.026,1.2-4.026,2.475-6.1,3.593-3.333,1.8-6.834,3.312-10.291,4.852-3.978,1.771-8.256,3.619-12.026,5.194-1.662.695-4.165,1.269-5.333,2.672a13.9,13.9,0,0,0-2.7,6.821,62.3,62.3,0,0,0-.014,15.911,2.468,2.468,0,0,0,2.4,2.4,2.416,2.416,0,0,0,2.4-2.4Z"/><path class="b" d="M205.791,168.121a49.131,49.131,0,0,0,5.054-10.166c1.419-3.534,2.664-7.133,3.9-10.735a36.678,36.678,0,0,1,4.621-9.7,28.6,28.6,0,0,1,9.856-8.54c5.313-2.844,11.132-4.6,16.82-6.516,2.912-.98,1.663-5.618-1.276-4.628-9.827,3.307-20.365,6.359-27.38,14.5a35.293,35.293,0,0,0-6.568,11.569c-1.184,3.385-2.31,6.79-3.576,10.146-1.507,4-3.11,8.137-5.591,11.649a2.42,2.42,0,0,0,.861,3.284,2.451,2.451,0,0,0,3.283-.861Z"/><path class="b" d="M284.619,85.972c2.9-3.013,5.664-6.161,8.511-9.227,1.479-1.592,2.974-3.171,4.52-4.7.687-.68,1.385-1.35,2.1-2,.311-.281.625-.559.944-.83q.225-.192.453-.379c.091-.074.75-.588.238-.2a2.48,2.48,0,0,0,.861-3.284,2.416,2.416,0,0,0-3.284-.861,74.486,74.486,0,0,0-9.043,8.656c-2.912,3.129-5.73,6.347-8.695,9.425-2.145,2.225,1.245,5.624,3.394,3.394Z"/><path class="a" d="M228.078,87.77l0-.026a3.471,3.471,0,0,1,2.063-3.779c8.017-3.378,17.4-4.645,26.569-4.685a176.62,176.62,0,0,1,21.965,1.575,4.53,4.53,0,0,1,3.976,4.477c.018,2.225.191,4.449.365,6.669a26.211,26.211,0,0,0,1,6.229,10.375,10.375,0,0,0,4.25,5.651,1.661,1.661,0,0,1,.283,2.638c-6.485,5.865-14.443,9.075-26.277,9.667-10.275.514-19.21-3.446-24.433-8.381C232.919,103.164,229.6,96.741,228.078,87.77Z"/><path class="b" d="M230.392,87.132c.1.586.026-.211.129-.426a1.125,1.125,0,0,1,.519-.521,17.25,17.25,0,0,1,3.849-1.423,61.382,61.382,0,0,1,8.289-2,87,87,0,0,1,16.971-1.043c3.1.08,6.2.279,9.3.551,2.923.257,5.943.419,8.833.941,2.153.388,1.945,2.258,2.019,4.029a77.439,77.439,0,0,0,.776,8.987,14.939,14.939,0,0,0,3.146,7.263,10.685,10.685,0,0,0,1.061,1.119c.151.135,1.78,1.27,1.767,1.345l-.182-.231a.494.494,0,0,1-.16-.626c-.124-.29.332-.323-.105-.055a15.084,15.084,0,0,0-1.367,1.158,32.051,32.051,0,0,1-10.435,5.5c-9.225,2.9-19.917,3.221-28.729-1.149a26.17,26.17,0,0,1-10.131-8.605,37.122,37.122,0,0,1-5.545-14.81,2.421,2.421,0,0,0-2.952-1.677,2.455,2.455,0,0,0-1.676,2.953c1.8,10.354,6.782,19.966,16.119,25.341,10.079,5.8,22.541,6.027,33.512,2.782a38.123,38.123,0,0,0,12.85-6.635,11.1,11.1,0,0,0,2.585-2.4,4.083,4.083,0,0,0-.033-4.391c-.737-1.131-2.067-1.687-2.939-2.714a8.811,8.811,0,0,1-1.672-3.23c-.886-3.006-.917-6.332-1.068-9.442-.144-2.946-.133-5.7-2.63-7.719-2.472-2-6.137-1.831-9.152-2.149-3.407-.359-6.822-.652-10.244-.818a95.482,95.482,0,0,0-22.085,1.263,57.267,57.267,0,0,0-10.3,2.868c-1.641.638-3.183,1.289-4.164,2.844a6.131,6.131,0,0,0-.782,4.4,2.418,2.418,0,0,0,2.952,1.676A2.456,2.456,0,0,0,230.392,87.132Z"/><path class="b" d="M264.722,73.38c-.7-2.07-.429-6.888,3.517-7.414,5.232-.124,5.683,5.678,4,8.462C270.867,76.707,266.655,77.763,264.722,73.38Z"/><path class="b" d="M234.636,74.222c-.673-2.072-.428-6.888,3.3-7.4,4.94-.106,5.386,5.7,3.809,8.474C240.45,77.569,236.476,78.611,234.636,74.222Z"/><path class="b" d="M304.322,66.447a4.489,4.489,0,0,1,4.132-.8,3.573,3.573,0,0,1,.851.346c.065.037.631.448.356.221a4.417,4.417,0,0,1,.616.637c-.33-.411,0,.012.053.122,1.219,2.356,1.057,5.6.338,8.233a15.474,15.474,0,0,1-4.306,7.19,7.856,7.856,0,0,1-7.705,1.786,2.42,2.42,0,0,0-2.953,1.676,2.455,2.455,0,0,0,1.677,2.953c3.145,1.2,6.985.376,9.877-1.168a16.361,16.361,0,0,0,6.5-7.287A20.669,20.669,0,0,0,316,70.955c-.036-2.859-.672-6.028-2.856-8.052a9.126,9.126,0,0,0-11.242-.6,2.477,2.477,0,0,0-.861,3.283,2.415,2.415,0,0,0,3.283.861Z"/><path class="b" d="M300.162,18.506a33.37,33.37,0,0,1,10.511,15.982c1.987,6.057,2.03,12.46,1.66,18.77-.18,3.061-.489,6.434-1.842,9.207a2.462,2.462,0,0,0,.861,3.283,2.421,2.421,0,0,0,3.284-.861c2.748-5.633,2.661-12.356,2.621-18.488a44.371,44.371,0,0,0-5.769-21.988,33.789,33.789,0,0,0-7.932-9.3,2.471,2.471,0,0,0-3.394,0,2.417,2.417,0,0,0,0,3.394Z"/><path class="b" d="M294.188,9.737a47.184,47.184,0,0,0-24.2-7.171A57.914,57.914,0,0,0,246.928,7.3,45.892,45.892,0,0,0,229.8,19.941,45.535,45.535,0,0,0,220.078,42.3a68.607,68.607,0,0,0,1.983,27.679c.813,2.977,5.445,1.713,4.629-1.276-3.9-14.282-3.79-31.181,5.153-43.636,8.007-11.152,21.735-16.877,35.143-17.629a42.566,42.566,0,0,1,24.779,6.439c2.649,1.606,5.064-2.543,2.423-4.144Z"/><path class="b" d="M283.628,7.079c2.169-1.756,5.346-2.222,8.048-2.273a18.749,18.749,0,0,1,8.7,1.789A21.969,21.969,0,0,1,312.087,21.02a12.792,12.792,0,0,1-1.453,10.021c-1.726,2.572,2.431,4.977,4.145,2.422,4.561-6.8,2.418-16.3-2.111-22.533A25.65,25.65,0,0,0,292.6.005c-4.381-.087-8.9.881-12.361,3.68a2.416,2.416,0,0,0,0,3.394,2.455,2.455,0,0,0,3.394,0Z"/><path class="b" d="M271.212,40.837c7.837,5.266,13.184,13.685,16.611,22.334a2.471,2.471,0,0,0,2.952,1.676,2.417,2.417,0,0,0,1.676-2.952c-3.92-9.894-9.848-19.176-18.817-25.2-2.571-1.727-4.976,2.429-2.422,4.145Z"/><path class="b" d="M268.683,36.971c-9.6,8.041-19.446,15.87-31.435,20.011a73.977,73.977,0,0,1-12.192,3.035,2.419,2.419,0,0,0-1.676,2.953,2.457,2.457,0,0,0,2.952,1.676,73.922,73.922,0,0,0,21-6.736,96.717,96.717,0,0,0,16.391-10.7c2.835-2.219,5.595-4.533,8.355-6.845a2.42,2.42,0,0,0,0-3.394,2.453,2.453,0,0,0-3.395,0Z"/><path class="a" d="M258.2,301.179c6.538-14.179,15.349-33.434,23.277-50.911l13.377-34.04c1.321-3.49,2.357-6.277,3.02-8.143,5.074-14.275,1.048-25.282-8.282-31.033-5.773-3.775-17.094-7.723-23.263-10.143a423.222,423.222,0,0,0-49.476-18.882c-14.488-4.653-28.9-12.538-43.883-5.963-6.885,3.534-13.1,9.255-18.825,14.811-1.427,1.384-2.825,2.758-4.195,4.086-7.082,6.861-29.166,38.443-39.155,60.953l-7.81,14.073,152.494,72.54Z"/><path class="c" d="M76.755,253.128a58.608,58.608,0,0,1,6.228-4.914c14.379-13.692,35.374-24.1,55.723-25.825,17.823-1.505,27.911-.085,42.151,2.624,16.173,3.076,32.485,9.926,44.185,20.514,18.988,17.184,26.291,45.444,36.112,77.167,0,0,5.173,24.778-40.577,22-47.886-2.907-69.29-36.033-104.095-42-60.272-10.333-45.165-42.5-45.165-42.5A23,23,0,0,1,76.755,253.128Z"/><path class="b" d="M247.448,217.733a66.9,66.9,0,0,0,33.732-32.267,2.465,2.465,0,0,0-.861-3.284,2.422,2.422,0,0,0-3.284.861,62.918,62.918,0,0,1-32.009,30.546,2.413,2.413,0,0,0-.861,3.283,2.462,2.462,0,0,0,3.283.861Z"/><path class="b" d="M279.4,249.056q-11.565,25.489-23.277,50.912a2.47,2.47,0,0,0,.861,3.284,2.419,2.419,0,0,0,3.283-.862q11.72-25.418,23.277-50.911a2.474,2.474,0,0,0-.861-3.284,2.419,2.419,0,0,0-3.283.861Z"/><path class="e" d="M296.581,216.638c-3.621,8.218-9.111,20.415-15.106,33.63"/><path class="b" d="M155.84,158.572c5.465-5.3,11.234-10.954,18.148-14.336,6.864-3.357,15.051-2.553,22.183-.655,7.643,2.034,15,5.117,22.513,7.559,7.377,2.4,14.717,4.908,21.974,7.645,8.269,3.118,16.413,6.541,24.457,10.2a2.473,2.473,0,0,0,3.284-.861,2.419,2.419,0,0,0-.861-3.284,445.461,445.461,0,0,0-45.589-17.677c-3.915-1.284-7.825-2.559-11.7-3.961-3.81-1.378-7.618-2.78-11.517-3.892-7.8-2.226-16.156-3.154-23.982-.5-4.422,1.5-8.277,4.221-11.924,7.08a132.955,132.955,0,0,0-10.379,9.287c-2.223,2.154,1.173,5.546,3.394,3.394Z"/><path class="b" d="M112.866,223.125a236.212,236.212,0,0,1,16.494-29.9,290.434,290.434,0,0,1,17.275-24.8,103.238,103.238,0,0,1,9.205-9.853c2.22-2.156-1.176-5.548-3.394-3.394a101.44,101.44,0,0,0-8.474,8.939c-2.867,3.548-5.578,7.222-8.217,10.941a342.134,342.134,0,0,0-18.435,28.878c-3.1,5.461-6.043,11.026-8.6,16.766a2.475,2.475,0,0,0,.861,3.284,2.418,2.418,0,0,0,3.284-.861Z"/><path class="b" d="M284.064,200.808q-12.281,26.271-24.015,52.793-3.345,7.56-6.645,15.142a2.478,2.478,0,0,0,.861,3.283,2.417,2.417,0,0,0,3.284-.861q11.576-26.589,23.7-52.934,3.456-7.511,6.959-15a2.47,2.47,0,0,0-.861-3.284,2.421,2.421,0,0,0-3.284.861Z"/><path class="b" d="M177.006,218.446c.119-.295-.219.241-.051.064.127-.132-.3.3-.294.3.267-.228-.59.316-.468.262-.043.019-.653.2-.919.261-.058.013-.653.117-.446.088a3.217,3.217,0,0,0-.324.027c-1.567.109-3.165.086-4.735.056-3.572-.068-7.144-.35-10.717-.31-3.087.033-3.095,4.834,0,4.8,4.025-.044,8.045.325,12.071.325,4.139,0,8.725-.159,10.511-4.592a2.416,2.416,0,0,0-1.676-2.952,2.459,2.459,0,0,0-2.952,1.676Z"/><path class="b" d="M211.906,220.823c-1.491,4.389-3.323,9.726-1.06,14.131,1.948,3.792,5.683,6.609,8.982,9.161a2.481,2.481,0,0,0,3.394,0,2.414,2.414,0,0,0,0-3.394c-2.856-2.21-6.16-4.619-7.973-7.721-.09-.154-.175-.311-.259-.469-.374-.7.037.159-.124-.244a5.03,5.03,0,0,1-.3-1.043c.076.463.011-.182.01-.247-.007-.331,0-.663.021-.994a13,13,0,0,1,.185-1.537,44.6,44.6,0,0,1,1.749-6.367,2.4,2.4,0,0,0-4.628-1.276Z"/><path class="e" d="M167.747,220.831a21.667,21.667,0,0,0,9.825,12.873,43.789,43.789,0,0,0,17.742,6.034,41.665,41.665,0,0,0,21.514-3.108"/><path class="a" d="M237.636,194.768a6.027,6.027,0,0,1,4.431,1.08,5.505,5.505,0,0,1,2.681,4.865c-.121,3.219-2.963,7.422-5.628,9.435a15.964,15.964,0,0,1-8.572,3.657,11.769,11.769,0,0,1-5.487-1.242c-1.4,1.049-4.108,2.684-4.108,2.684a50.8,50.8,0,0,1-13.48,5.442l-1.938.469-7.056-.211a56.283,56.283,0,0,1-12.092-1.637,42.355,42.355,0,0,1-4.024-1.359,30.9,30.9,0,0,1-17.807-17.108c-3.561-7.937-2.3-17.017,1.049-26.082,2.245-6.075,4.876-12.685,7.068-19.384,0,0,14.936-31.8,53.456-4.3C255.477,172.024,237.636,194.768,237.636,194.768Z"/><path class="b" d="M208.111,223a53.354,53.354,0,0,0,11.3-4.208,43.552,43.552,0,0,0,6.848-4.138,2.48,2.48,0,0,0,.861-3.284,2.417,2.417,0,0,0-3.284-.861,46.109,46.109,0,0,1-17,7.862A2.4,2.4,0,0,0,208.111,223Z"/><path class="b" d="M198.479,218.547c-9.686-.323-19.648-2.931-26.389-10.31a28.414,28.414,0,0,1-6.677-12.372c-1.33-5.72-.309-11.718,1.407-17.241,2.084-6.7,4.93-13.176,7.226-19.81,1.013-2.926-3.622-4.183-4.628-1.277-2.193,6.336-4.838,12.523-6.932,18.891-2.03,6.176-3.1,12.761-2,19.226,1.754,10.338,9.525,19.405,18.95,23.646a49.923,49.923,0,0,0,19.044,4.047c3.089.1,3.085-4.7,0-4.8Z"/><path class="b" d="M202.145,184.06c.4-1.968,2.846-5.661,6.219-4.254,4.206,2.322,1.88,7.133-.74,8.564C205.479,189.541,201.65,188.431,202.145,184.06Z"/><path class="b" d="M176.709,171.175c.432-1.915,2.8-5.569,5.84-4.325,3.77,2.1,1.475,6.828-.973,8.3C179.572,176.357,176.106,175.416,176.709,171.175Z"/><path class="b" d="M187.536,181.358a42.1,42.1,0,0,0-3.518,2.487l.486-.375a8.377,8.377,0,0,0-.863.686,3.622,3.622,0,0,0-.665.86,3.22,3.22,0,0,0-.4,1.57,3.989,3.989,0,0,0,.479,1.661,5.076,5.076,0,0,0,1.935,1.89,2.4,2.4,0,0,0,3.526-2.71l-.242-.573a2.416,2.416,0,0,0-.861-.861c-.173-.122-.36-.221-.53-.347l.486.375a1.97,1.97,0,0,1-.331-.327l.376.485a2.324,2.324,0,0,1-.259-.455l.242.573a1.583,1.583,0,0,1-.107-.349l.086.638a.562.562,0,0,1,0-.123l-.086.638a1.019,1.019,0,0,1,.048-.178l-.241.574a1.3,1.3,0,0,1,.131-.225l-.375.486a2.6,2.6,0,0,1,.453-.437l-.486.375c.251-.191.5-.385.75-.579l-.486.375c.923-.71,1.9-1.361,2.876-1.99a2.523,2.523,0,0,0,1.1-1.434,2.446,2.446,0,0,0-.242-1.849,2.4,2.4,0,0,0-3.283-.861Z"/><path class="b" d="M178.924,198.473a13.432,13.432,0,0,0,5.185,4.178,13.039,13.039,0,0,0,3.117,1.084,25,25,0,0,0,3.808.212,2.421,2.421,0,0,0,2.4-2.4,2.448,2.448,0,0,0-2.4-2.4c-.513-.016-1.026,0-1.539-.006-.257,0-.515,0-.772-.017a3.2,3.2,0,0,0-.322-.026c.578-.031.4.06.169.02a8.957,8.957,0,0,1-1.185-.294c-.216-.068-.43-.144-.642-.226-.069-.027-.406-.166-.07-.024.373.159-.1-.049-.142-.067a14.721,14.721,0,0,1-2.294-1.352c-.354-.252.287.24.063.051-.076-.065-.155-.126-.231-.19-.166-.142-.33-.288-.487-.439-.134-.13-.264-.263-.39-.4-.075-.082-.142-.176-.221-.254-.2-.193.367.5.1.128a2.607,2.607,0,0,0-1.435-1.1,2.452,2.452,0,0,0-1.849.242,2.427,2.427,0,0,0-.861,3.284Z"/><path class="f" d="M234.127,192.368c-.533-9.533-1.715-19.118-4.869-28.13a60.081,60.081,0,0,0-2.861-6.822l-11.134-1.778c-.137.188.365.207.329-.023s-.325-.306-.557-.331a135.4,135.4,0,0,0-20.35-1.152c-6.794.3-13.644,1.668-19.624,4.908l-9.949,5.211a1.061,1.061,0,0,1-.458.348,1.671,1.671,0,0,1-1.944-.888,4.486,4.486,0,0,1-.04-3.066c1.388-5.426,5.065-9.748,8.621-13.841a43.181,43.181,0,0,1,4.744-4.914,19.944,19.944,0,0,1,9.816-4.456l1.023-.152.967-6.068c.641-4.019,3.739-7.306,7.331-9.219s7.669-2.672,11.673-3.407c5.556-1.019,11.174-2.043,16.814-1.732s11.391,2.089,15.468,6q.451.433.872.894c6.273,1.117,13.824,4.328,18.87,10.328,5.441,6.469,7.272,15.143,8.924,23.432a14.379,14.379,0,0,1,.413,3.889c-.2,2.666-1.1,5.1-3.961,6.115l1.136,6.132a27.569,27.569,0,0,1-4.995,16.059c-1.962,2.97-4.682,6.243-6.216,9.661a7.894,7.894,0,0,1-2.429,3.409c-1.224.885-3.441,1.067-4.362-.028l-2.723-3.236a5.843,5.843,0,0,0-2.589-3.661,6.1,6.1,0,0,0-4.374-1.1l-3.126-2.053"/><path class="b" d="M212.863,155.638l0,.108a2.448,2.448,0,0,0,1.762,2.315,2.6,2.6,0,0,0,3.041-1.235,2.694,2.694,0,0,0-1.751-3.81,23.76,23.76,0,0,0-3.848-.447c-1.487-.154-2.974-.3-4.463-.431a88.023,88.023,0,0,0-16.24-.17,48.557,48.557,0,0,0-14.725,3.648c-2.173.946-4.257,2.122-6.356,3.222l-5.967,3.126c-2.738,1.434-.314,5.579,2.422,4.145q4.635-2.429,9.268-4.856c7.018-3.691,14.8-4.857,22.658-4.786,2.653.023,5.3.174,7.948.388,1.407.114,2.812.246,4.216.387q.992.1,1.982.205l.742.078c.141.015,1.4.313.722-.02l-.861-.861.108.182V154.4l-.055.127,1.434-1.1-.147.041h1.276l-.128-.037,1.762,2.314,0-.108c.045-3.09-4.755-3.091-4.8,0Z"/><path class="b" d="M211.589,142.64c11.914,9.258,17.166,23.989,19.127,38.49.315,2.33.543,4.674.728,7.017q.131,1.641.229,3.283a9.392,9.392,0,0,0,.071,1.606c0-.013,0,.382-.034.338q-.431.065.722-.349,1.02-.91,1.655.534v1.276l.057-.232c.734-3-3.893-4.28-4.629-1.276a3.382,3.382,0,0,0,4.173,4c2.61-.655,2.932-3.426,2.8-5.666a138.725,138.725,0,0,0-1.69-15.353c-1.588-9.2-4.579-18.321-9.8-26.13a46.4,46.4,0,0,0-10.017-10.936,2.479,2.479,0,0,0-3.394,0,2.415,2.415,0,0,0,0,3.394Z"/><path class="b" d="M163.415,162.554q.7-.561,1.217-.146a.387.387,0,0,1,.248.31,4.661,4.661,0,0,1-.061-.583,8.1,8.1,0,0,1,.515-2.054,19.332,19.332,0,0,1,1.6-3.554,44.414,44.414,0,0,1,5.116-6.946,40.071,40.071,0,0,1,6.372-6.532,18.442,18.442,0,0,1,8.064-3.3,2.418,2.418,0,0,0,1.676-2.952,2.458,2.458,0,0,0-2.952-1.676c-8.491,1.354-14.15,7.793-19.168,14.243a29.68,29.68,0,0,0-5.635,10.442c-.53,2-.674,4.362.868,5.977a3.84,3.84,0,0,0,5.531.166c2.185-2.189-1.208-5.584-3.394-3.394Z"/><path class="b" d="M245.682,204.442c2.777,2.794,7.189,1.246,9.259-1.556a48.859,48.859,0,0,0,2.478-4.566c.917-1.563,1.97-3.042,3.021-4.515a43.461,43.461,0,0,0,5.468-9.563,29.9,29.9,0,0,0,1.873-10.6c.019-3.089-4.781-3.093-4.8,0a27.671,27.671,0,0,1-5.465,16.018,66.381,66.381,0,0,0-4.962,7.545c-.564,1.1-.963,2.49-1.9,3.351-.409.376-1.339.733-1.581.49-2.181-2.193-5.575,1.2-3.394,3.394Z"/><path class="b" d="M237.693,197.147a4.314,4.314,0,0,1,4.05,1.625,2.651,2.651,0,0,1,.584,1.3c.144.49.016-.345.018.149a7.309,7.309,0,0,1-.014.769c-.264,2.521-2.483,5.488-4.565,7.188-1.813,1.481-4.681,3.122-7.367,3.235a6.911,6.911,0,0,1-3.01-.479,5.709,5.709,0,0,1-2.968-1.942,2.414,2.414,0,0,0-3.394,0,2.459,2.459,0,0,0,0,3.394c1.9,2.379,5.082,3.417,8,3.758a14.827,14.827,0,0,0,8.869-2.264,20.448,20.448,0,0,0,6.782-6.352c1.665-2.51,2.95-5.685,2.274-8.732a8.828,8.828,0,0,0-9.262-6.45,2.476,2.476,0,0,0-2.4,2.4,2.414,2.414,0,0,0,2.4,2.4Z"/><path class="b" d="M84.68,249.911a95.41,95.41,0,0,1,41.507-22.943,102.662,102.662,0,0,1,24.52-2.784,123.626,123.626,0,0,1,20.94,1.616,142.035,142.035,0,0,1,23.2,5.369A88.362,88.362,0,0,1,216.6,241.906c11.428,7.863,19.621,19.174,25.654,31.519,6.772,13.859,11.076,28.842,14.984,43.713q.813,3.093,1.6,6.194c.761,2.992,5.391,1.724,4.629-1.276-4.03-15.854-8.378-31.751-15.05-46.73-5.725-12.852-13.55-25.1-24.618-34-13.3-10.693-29.515-16.331-46.129-19.338-15.5-2.806-31.52-3.776-47.1-.9a99.331,99.331,0,0,0-44.813,21.45q-2.3,1.914-4.474,3.978c-2.246,2.129,1.152,5.519,3.394,3.394Z"/><path class="b" d="M164.338,202.392c-2.261,1.389-5.147.195-6.743-1.7-2.261-2.678-2.5-6.624-2.535-9.965-.068-7.485,1.392-15.062,5.767-21.271a2.421,2.421,0,0,0-.861-3.284,2.45,2.45,0,0,0-3.283.861c-4.138,5.872-5.934,13.023-6.339,20.117-.381,6.659.034,15,6.292,18.969a9.645,9.645,0,0,0,10.125.415c2.628-1.614.22-5.767-2.423-4.145Z"/><path class="b" d="M165.551,164.647c-2.025,5.29-1.64,11.057-.806,16.545a2.407,2.407,0,0,0,2.952,1.676,2.473,2.473,0,0,0,1.676-2.952c-.691-4.548-.911-9.508.807-13.993a2.41,2.41,0,0,0-1.676-2.952,2.468,2.468,0,0,0-2.953,1.676Z"/><path class="a" d="M217.713,230.583c-5.4-3.114-10.56-6.221-12.733-7.633a24.583,24.583,0,0,1-4.706-3.675,8.573,8.573,0,0,1-2.574-6.209,5.651,5.651,0,0,1-.814-.788,3.454,3.454,0,0,1-.667-3.23c.587-1.852,2.23-2.7,4.285-2.479,2.2.239,4.6,1.276,6.785,1.819,7.842,1.955,14.918,5.189,22.676,2.062L217.1,202.088c-1.1-.715-2.312-1.583-2.1-3.1a2.589,2.589,0,0,1,1.459-1.906c1.644-.812,3.409-.282,5.021.32,5.451,2.036,10.593,4.991,16.278,6.228,2.84.618,6.038.932,7.974,3.1s1.986,5.6,3.787,7.835c12.415,2.369,25.076,2.949,37.694,3.524.309.014,3.9,0,7.008-.232.367-.942.636-1.629.636-1.629.3-.779.641-1.71,1-2.7a6.643,6.643,0,0,1,10.1-3.116h0a125.3,125.3,0,0,0,20.416,10.78l-.076.163c-3.122,6.511-11.338,21.7-19.386,26.168a26.807,26.807,0,0,1-12.8,3.083c-4.763.011-9.63-1.053-15.825-2.856-2.842-.827-32.634-11.449-32.634-11.449-4.569-1.273-18.283-.3-22.036-2.38C221.705,232.865,219.692,231.724,217.713,230.583Z"/><path class="b" d="M251.639,213.342c-1.168-1.225-1.483-3.014-2.073-4.546a10.24,10.24,0,0,0-3.693-5.077,15.167,15.167,0,0,0-5.675-2.036A44.074,44.074,0,0,1,233.9,200c-4.39-1.585-8.517-4.028-13.007-5.32-2.328-.67-5.011-.562-6.81,1.259a4.723,4.723,0,0,0-.31,6.5,12.781,12.781,0,0,0,2.925,2.258l3.668,2.383,3.463,2.25,1.834,1.192c.505.328,1.217.674,1.328.936l-.328-1.211-.01.244.7-1.7-.176.173c-2.206,2.169,1.189,5.562,3.394,3.394a2.785,2.785,0,0,0,.561-3.326,6.079,6.079,0,0,0-2.438-2.261l-5.909-3.839c-1.72-1.118-3.432-2.258-5.145-3.382-.66-.433-.036-.346-.272-.1.041-.042.125-.178.184-.185a6.156,6.156,0,0,1,.821-.183,4.961,4.961,0,0,1,1.447.293c4.114,1.268,7.945,3.415,11.964,4.946a38.543,38.543,0,0,0,6.044,1.782,19.638,19.638,0,0,1,4.708,1.231c1.649.8,2.248,2.263,2.812,3.912a14.21,14.21,0,0,0,2.893,5.5c2.135,2.241,5.525-1.157,3.394-3.394Z"/><path class="b" d="M226.751,208.959c-3.972.882-7.941.088-11.8-.951-2.115-.568-4.21-1.207-6.33-1.757-2.017-.523-3.978-1.27-6.008-1.737-3.564-.82-7.622-.011-8.735,3.984-1.269,4.551,2.905,7.232,6.548,8.559,4.757,1.733,9.58,3.291,14.434,4.729,2.968.879,4.236-3.752,1.276-4.629-4.788-1.419-9.546-2.956-14.242-4.658-1.021-.371-3.373-1.036-3.471-2.4-.09-1.235,1.342-1.243,2.278-1.095,2.178.344,4.282,1.259,6.413,1.812,2.271.589,4.516,1.274,6.783,1.877,4.655,1.239,9.365,1.948,14.13.891,3.014-.669,1.738-5.3-1.276-4.629Z"/><path class="b" d="M195.31,213.99c.793,7.118,7.646,10.618,13.176,13.947q4.548,2.739,9.159,5.375c2.457,1.408,4.9,3.131,7.719,3.694,5.243,1.046,10.692.755,16,1.119.567.039,1.133.084,1.7.144.12.012.866.11.409.043.243.036.486.075.727.122a8.231,8.231,0,0,1,1.006.255c.858.28,1.705.607,2.555.91q11.733,4.175,23.485,8.3c9.928,3.459,20.631,6.9,31.142,4.019a23.7,23.7,0,0,0,8.884-4.541,40.165,40.165,0,0,0,6.151-6.639A99.951,99.951,0,0,0,326.9,225.5q.751-1.455,1.463-2.932a2.466,2.466,0,0,0-.861-3.284,2.422,2.422,0,0,0-3.284.861,113.961,113.961,0,0,1-7.747,13.7c-2.934,4.414-6.431,9.312-11.152,11.81-9.605,5.082-21.016,1.684-30.62-1.634-7.738-2.674-15.451-5.423-23.165-8.165-1.791-.637-3.583-1.405-5.416-1.913a30.622,30.622,0,0,0-6.626-.727c-2.719-.13-5.441-.181-8.158-.343a24.392,24.392,0,0,1-6.135-.864c-.246-.074-.473-.205-.092-.016-.217-.108-.429-.225-.642-.342-.853-.471-1.7-.952-2.55-1.433q-2.4-1.362-4.793-2.752-4.1-2.388-8.162-4.857a34.449,34.449,0,0,1-6.7-4.726,6.953,6.953,0,0,1-2.157-3.9,2.473,2.473,0,0,0-2.4-2.4,2.415,2.415,0,0,0-2.4,2.4Z"/><path class="b" d="M293.53,215.305a49.594,49.594,0,0,1-10.221.2c-3.655-.173-7.311-.361-10.962-.608a188.8,188.8,0,0,1-21.86-2.587,2.466,2.466,0,0,0-2.952,1.677,2.422,2.422,0,0,0,1.676,2.952,200.217,200.217,0,0,0,23.136,2.758c3.814.258,7.631.452,11.45.631a52.985,52.985,0,0,0,11.009-.4,2.417,2.417,0,0,0,1.676-2.952,2.458,2.458,0,0,0-2.952-1.676Z"/><path class="b" d="M297.13,114.905c-3.882,5.808-9.909,9.915-16.348,12.427a53.09,53.09,0,0,1-7.93,2.4,15.571,15.571,0,0,0-4.137,1.131c-2.044,1.091-3.42,3.282-4.683,5.152l4.387.573a16.406,16.406,0,0,0-2.874-5.425c-1.578-2-4-2.35-6.237-3.283a27.138,27.138,0,0,1-6.9-3.985,29.006,29.006,0,0,1-4.292-4.684,2.475,2.475,0,0,0-3.284-.861,2.418,2.418,0,0,0-.861,3.284,36.022,36.022,0,0,0,4.18,4.895,28.976,28.976,0,0,0,7.31,4.856c1.262.6,2.556,1.142,3.865,1.63q.848.317,1.706.6c.162.053.853.428.375.112-.292-.193.017,0,.136.126a9.815,9.815,0,0,1,1.514,2.332c.214.417.419.842.6,1.275-.2-.469.088.254.131.4a2.431,2.431,0,0,0,4.386.573c1.039-1.538,2-3.3,3.931-3.676,1.134-.217,2.263-.442,3.385-.719a55.53,55.53,0,0,0,8.563-2.9,38.773,38.773,0,0,0,17.219-13.811c1.721-2.575-2.435-4.981-4.145-2.422Z"/><path class="b" d="M245.758,120.032l.129-.044c-.793-.545,2.5,3.3,2.634,3.468l-2.284,2.012L242.8,127.4a27.317,27.317,0,0,0-3.674-4.541c-.151-.144-.305-.286-.46-.425C241,121.617,243.38,120.836,245.758,120.032Z"/><path class="b" d="M336.591,224.413c1.718-4.146,3.525-8.264,4.97-12.516,1.379-4.053,2.62-8.155,3.684-12.3a113.569,113.569,0,0,0,3.849-26.517A62.549,62.549,0,0,0,344.4,147.32c-3.863-8.937-10.544-15.816-18.26-21.579-7.941-5.93-16.778-9.832-26.132-12.916-2.94-.97-4.2,3.664-1.276,4.628,2.773.915,5.561,1.81,8.266,2.911a75.215,75.215,0,0,1,13.409,7.182c7.612,5.092,14.53,11.451,18.691,19.715,7.535,14.961,5.848,33.074,2.069,48.831-1.087,4.531-2.394,9.008-3.866,13.429-1.542,4.631-3.473,9.108-5.34,13.616a2.413,2.413,0,0,0,1.676,2.952,2.461,2.461,0,0,0,2.952-1.676Z"/><path class="b" d="M334.806,221.684a119.525,119.525,0,0,1-27.642-13.34c-2.618-1.656-5.029,2.5-2.422,4.145a124.5,124.5,0,0,0,28.788,13.824c2.951.938,4.214-3.695,1.276-4.629Z"/><path class="b" d="M265.689,169.224c7.985,3.124,16.634,5.677,23.752,10.594,6.57,4.539,9.02,12.366,8.02,20.075-.705,5.434-3,10.611-4.923,15.7a2.42,2.42,0,0,0,1.676,2.952,2.453,2.453,0,0,0,2.953-1.676c1.841-4.87,3.954-9.771,4.805-14.935a29,29,0,0,0-.864-14.253,23.568,23.568,0,0,0-7.018-10.3,47.257,47.257,0,0,0-11.912-6.778c-5.009-2.161-10.135-4.015-15.213-6a2.419,2.419,0,0,0-2.953,1.676,2.458,2.458,0,0,0,1.677,2.953Z"/><path class="b" d="M190.155,131.852c1.677-9.382,14.132-10.463,21.626-11.714,8.809-1.471,19.56-2.019,26.273,5.041a41.834,41.834,0,0,1,4.6,6.388l4.959,7.716c1.665,2.59,5.822.186,4.145-2.423l-4.829-7.512a59.974,59.974,0,0,0-4.747-6.741,23.7,23.7,0,0,0-13.069-7.424c-5.606-1.215-11.312-.8-16.935.058-5.37.817-11.039,1.582-16.08,3.687-4.986,2.082-9.583,6.1-10.575,11.648a2.469,2.469,0,0,0,1.676,2.953,2.421,2.421,0,0,0,2.952-1.677Z"/><path class="b" d="M245.6,127.782a27.036,27.036,0,0,1,14.93,13.27,47.155,47.155,0,0,1,3.332,9.64c.433,1.737.812,3.487,1.172,5.241a20.763,20.763,0,0,1,.761,5.6,5.365,5.365,0,0,1-.99,2.864,4.258,4.258,0,0,1-.945.685,5.84,5.84,0,0,1-2.045.5,2.463,2.463,0,0,0-2.4,2.4,2.418,2.418,0,0,0,2.4,2.4c3.679-.311,6.735-1.916,8.1-5.482,1.473-3.834.226-8.025-.6-11.863-1.747-8.153-4.342-16.527-10.471-22.507a34.587,34.587,0,0,0-11.977-7.381,2.419,2.419,0,0,0-2.952,1.676,2.452,2.452,0,0,0,1.676,2.952Z"/></svg>