<svg xmlns="http://www.w3.org/2000/svg" width="235.29" height="300.197" viewBox="0 0 235.29 300.197"><defs><style>.a{fill:#fce0cd;}.b{fill:#645d5c;}.c{fill:#efc0a0;}.d{fill:#a98a75;}.e{fill:#febe69;}.f{fill:#fff;}</style></defs><path class="a" d="M79.236,209.931a238.78,238.78,0,0,1-16.805-29.007,28.615,28.615,0,0,1-2.243-11.213c.126-3.35.149-4.946.24-8.3A18.271,18.271,0,0,0,59,154.061a18.857,18.857,0,0,0-3.868-5.7c-4.133-3.773-6.872-6.921-11.26-10.08a6.486,6.486,0,0,0-4.4-1.1,4.041,4.041,0,0,0-3.505,2.717c-.591,2.008.658,4.056,1.84,5.735l3.665,5.206.168.356c-2.238-1.057-6.952-3.206-7.963-4.065-5.3-4.511-9.581-8.7-14.821-12.8a6.133,6.133,0,0,0-4.334-1.636,4.589,4.589,0,0,0-3.468,1.87c-1.026-1.839-3.358-1.743-4.839-.262,0,0-.714.714-1.766,1.761a3.244,3.244,0,0,0-2.166.885c-1.352,1.318-1.036,3.97-.667,4.8a15.193,15.193,0,0,0,4.441,5.621,3.376,3.376,0,0,0-5.432-.105c-1.277,1.763-.274,4.749.245,5.525a113.745,113.745,0,0,0,15.858,18.837c4.778,5.423,13.933,11.8,19.693,14.043,3.342,6.909,6.136,12.682,6.136,12.682,5.784,11.955,13.858,34.229,21.04,47.055a31.676,31.676,0,0,0,4.333,6.249,13.486,13.486,0,0,0,9.326,4.333c3.391.052,6.348.054,9.542-1.577l2.418-1.167c.264-5.034.448-8.709.532-10.687l-.111,0c-.015-.368-.015-.717-.015-1.065-.3-8.9-.83-18.767-1.562-28.992a55.264,55.264,0,0,0-6.667-4.754Z"/><path class="a" d="M187.609,69.714a6.518,6.518,0,0,1,4.711-1.725,6.045,6.045,0,0,1,5.431,3.018c1.846,3.2,1.768,9.1.529,12.748-.877,2.584-2.314,6.537-5.779,9.372a7.183,7.183,0,0,1-5.538,1.6l-.531-.09a42.3,42.3,0,0,1-1.906,5.172c-1.408,3.821-9.188,17.223-19.033,22.45.147,1.89.392,3.76.722,5.64.514,2.947.355,5.574,4.455,7.056.113.041,2.277,1.064,4.761,2.24-6.964,6.08-18.255,9.934-26.186,10.862a22.4,22.4,0,0,1-3.33,6.06,34.594,34.594,0,0,1-3.255-5.97c-7.68-.735-18.6-4.035-25.71-9.9-.107-.1-.252-.223-.4-.353,3.209-1.486,6.23-2.893,6.357-2.939,4.1-1.482,3.923-4.109,4.455-7.056.293-1.7.524-3.276.666-4.928-4.858-2.117-9.178-5.694-13.279-10.6a49.548,49.548,0,0,1-9.4-17.739,7.046,7.046,0,0,1-5.992-1.5c-3.464-2.835-4.9-6.788-5.779-9.372-1.239-3.65-1.317-9.547.529-12.748a6.045,6.045,0,0,1,5.431-3.018,6.518,6.518,0,0,1,4.711,1.725s-6.1-39.155,42.064-39.155S187.609,69.714,187.609,69.714Z"/><path class="b" d="M194.634,38.7c2.605-4.366,3.04-10.155,1.983-15.138A29.856,29.856,0,0,0,188.2,8.268,25.849,25.849,0,0,0,175.825.976c-5.158-1.4-12.341-1.564-16.847,1.309l-1.517,1.093a44.481,44.481,0,0,0-11.8-.97c-22.986-1.263-44.916,16.027-49.352,37.818-1.206,5.879-1.057,15.925.044,20.614,0,0,1.1,4.781,1.817,7.315a7.5,7.5,0,0,1,1.369-.166,6.518,6.518,0,0,1,4.711,1.725l6.2-2.507c24.6-3.66,38.624-15.794,53.332-28.107,6.091,3.478,12.733,11.019,15.34,15.39,2.224,3.73,7.264,13.2,7.486,16.528a6.247,6.247,0,0,1,5.714-3.029,7.385,7.385,0,0,1,2.771.6c3.007-8.422,1.291-21.629-.095-28.36C194.892,39.712,194.758,39.206,194.634,38.7Z"/><path class="c" d="M138.051,105.155a17.266,17.266,0,0,0,8.318,1.931,13.583,13.583,0,0,0,8.449-2.515,2.4,2.4,0,0,0,0-3.394,2.475,2.475,0,0,0-3.394,0c.743-.578.225-.177.034-.055-.164.106-.333.2-.5.293-.233.122-.775.237-.12.08-.235.056-.467.179-.7.253a12.949,12.949,0,0,1-1.952.446c.36-.057.1-.015-.113.006-.192.019-.383.035-.575.048-.462.03-.925.041-1.388.038q-.622,0-1.243-.044c-.19-.013-.38-.028-.569-.047-.077-.008-.771-.127-.2-.02a18.043,18.043,0,0,1-1.824-.405c-.255-.077-.5-.169-.756-.255-.589-.2.419.209-.113-.042q-.468-.221-.927-.462a2.4,2.4,0,1,0-2.422,4.144Z"/><path class="c" d="M145.024,85.721a38.44,38.44,0,0,1,.9,4.133l-.086-.638a2.479,2.479,0,0,1,.015.571l.086-.638a1.348,1.348,0,0,1-.063.256l.242-.573a1.013,1.013,0,0,1-.09.165l.375-.486a.893.893,0,0,1-.135.133l.486-.375a2.7,2.7,0,0,1-.328.173L147,88.2a2.328,2.328,0,0,1-.552.161l.638-.085a2.244,2.244,0,0,1-.518,0l.638.085c-.2-.027-.387-.074-.582-.1a1.823,1.823,0,0,0-.957-.043,1.8,1.8,0,0,0-.893.285,2.4,2.4,0,0,0-.861,3.284,2.3,2.3,0,0,0,1.435,1.1c.469.063.925.182,1.4.2a4.531,4.531,0,0,0,2.1-.5,3.091,3.091,0,0,0,1.695-2.03,4.99,4.99,0,0,0-.02-2.155c-.225-1.331-.533-2.651-.875-3.957a2.476,2.476,0,0,0-1.1-1.434,2.4,2.4,0,0,0-3.526,2.71Z"/><path class="b" d="M123.441,73.942c-.69,2.243-.24,7.4,4.009,7.842,5.616-.034,5.915-6.272,4.025-9.205C129.927,70.177,125.375,69.178,123.441,73.942Z"/><path class="b" d="M168.416,73.942c.69,2.243.241,7.4-4.009,7.842-5.616-.034-5.915-6.272-4.025-9.205C161.93,70.177,166.482,69.179,168.416,73.942Z"/><path class="d" d="M199.655,233.607c.079-4.72.135-9.71.295-14.018l1.229-.207c8.977-1.518,25.659-4.834,34.111-8.361-6.218-19.428-14.108-41.784-15.18-44.158-3.4-7.521-5.393-9.724-8.649-12.139a71.148,71.148,0,0,0-7.605-4.68c-4.547-2.326-19.82-9.337-28.427-12.848-6.965,6.079-18.253,9.932-26.184,10.86a22.409,22.409,0,0,1-3.331,6.06,34.656,34.656,0,0,1-3.254-5.97c-7.681-.735-18.6-4.035-25.71-9.9-.16-.144-.405-.356-.605-.545-7.991,2.713-15.88,6.378-26.7,11.045a33.505,33.505,0,0,0-18.859,19.927c-1.637,4.4-5.688,15.309-6.16,16.578a229.927,229.927,0,0,0,14.615,24.68l2.154-2.19a55.593,55.593,0,0,1,6.667,4.751c.731,10.226,1.262,20.1,1.562,29,0,.348,0,.7.015,1.065h.113c-.263,6.146-1.5,28.775-3.057,57.645H202.227c-1.031-19.589-1.819-34.367-2.063-39.416Z"/><path class="e" d="M200.846,258.511c-6.832-9.854-40.485-56.5-46.249-64.481a1.487,1.487,0,0,0-2.048-.363c-8.852,6.01-38.8,28.419-45.568,33.709a1.488,1.488,0,0,0-.336,1.981c8.424,13.152,37.6,54.6,45.626,65.812a1.493,1.493,0,0,0,2.1.335c8.751-6.369,39.836-30.111,46.159-34.95A1.5,1.5,0,0,0,200.846,258.511Z"/><path class="f" d="M194,176.067H173.055a1.473,1.473,0,0,0-1.473,1.473v6.378a1.47,1.47,0,0,0,1.468,1.474h20.941a1.474,1.474,0,0,0,1.474-1.474V177.54A1.469,1.469,0,0,0,194,176.067Z"/><path class="a" d="M228.325,213.408a266.194,266.194,0,0,1-28.376,6.171c-.158,4.309-.215,9.3-.294,14.014-6.825,6.027-11.6,8.161-22.948,14.906l-9.913,4.174a6.389,6.389,0,0,1-4.641.127c-2.522-.91-4.814-1.619-8-2.752a47.808,47.808,0,0,0-5.427-.893c-2.36-.24-4.1-.517-6.475-.587-3.139-.093-4.965-.3-6.181,1.055a3.6,3.6,0,0,0-.818,2.934c.448,4.3,8.193,6.452,11.871,8.8a41.064,41.064,0,0,1-10.219,3.719,58.962,58.962,0,0,1-6.564-1.742c-1.8-.607-4.1.854-4.728,2.115a4.081,4.081,0,0,0,1.235,5.038,16.456,16.456,0,0,0,2.52,1.416,8.332,8.332,0,0,0,.77,6.211c.946,1.53,2.264,3.4,3.914,4.118a21.4,21.4,0,0,0,5.76,9.83c1.145,1.167,5.1,2.012,6.278,1.684,9.944-2.758,17.68-8.518,25.334-15.4a21.567,21.567,0,0,1,3.967-2.682c3.925-1.542,42.493-16.492,48.886-20.9,4.746-3.25,9.116-8.886,10.238-13.962.937-4.195.892-9.179-.565-16.927a101.211,101.211,0,0,0-2.75-11.357C230.283,212.819,229.321,213.115,228.325,213.408Z"/></svg>